<svg width="60" height="60" viewBox="0 0 60 60" fill="none" xmlns="http://www.w3.org/2000/svg">
<path d="M51.2494 32.5013H50.0006C50.0006 30.7489 48.7976 29.2786 47.1735 28.8666C46.8238 25.8178 46.1243 21.1999 44.7821 16.5307C43.4364 11.8468 41.717 8.09684 39.6717 5.38137C36.9799 1.8109 33.7226 0 29.9854 0C26.2481 0 22.9889 1.8109 20.2991 5.38148C18.2538 8.09695 16.5345 11.847 15.1887 16.5308C13.8465 21.2 13.147 25.8179 12.7955 28.8667C11.1714 29.2787 9.9702 30.7489 9.9702 32.5014H8.75062C8.06027 32.5013 7.5 33.0615 7.5 33.75V58.7513C7.5 59.4415 8.06027 60 8.75062 60H51.2494C51.9397 60 52.5 59.4415 52.5 58.7513V33.75C52.5 33.0615 51.9397 32.5013 51.2494 32.5013ZM46.2506 31.2506C46.9391 31.2506 47.4994 31.8109 47.4994 32.5013H45C45 31.8109 45.5603 31.2506 46.2506 31.2506ZM17.5909 17.2211C18.8525 12.832 20.4346 9.35484 22.2968 6.88664C24.5197 3.93492 27.0356 2.50125 29.9854 2.50125C32.9316 2.50125 35.4437 3.93129 37.6648 6.87375C39.5251 9.33656 41.1071 12.8064 42.3688 17.1863C43.6506 21.6339 44.3317 26.1237 44.6796 29.0954C43.3924 29.6905 42.5006 30.9906 42.5006 32.5011H17.4701C17.4701 30.9905 16.5765 29.6905 15.2911 29.0954C15.6354 26.1346 16.3146 21.6632 17.5909 17.2211ZM13.7201 31.2506C14.4086 31.2506 14.9707 31.8109 14.9707 32.5013H12.4695C12.4695 31.8109 13.0316 31.2506 13.7201 31.2506ZM48.5706 35.0006L41.7792 46.2506H36.2348V45C36.2347 44.3115 35.6763 43.7513 34.986 43.7513H24.9847C24.2944 43.7513 23.736 44.3115 23.736 45V46.2506H18.1916L11.3984 35.0006H48.5706ZM33.7354 46.2506V48.75H26.2354V46.2506H33.7354ZM50.0005 57.5006H9.99938V37.522L16.7798 48.75H23.736V50.0006C23.736 50.691 24.2945 51.2513 24.9847 51.2513H34.986C35.6763 51.2513 36.2347 50.691 36.2347 50.0006V48.75H43.1909L50.0005 37.4707V57.5006Z" fill="#00B94B"/>
</svg>
