<svg width="60" height="60" viewBox="0 0 60 60" fill="none" xmlns="http://www.w3.org/2000/svg">
<path d="M52.5074 49.8542L49.6173 17.7328C49.4229 15.163 47.9504 12.9029 45.6782 11.6867L43.1479 10.332C43.1324 9.56821 43.0321 7.41267 42.4162 4.88713C42.4149 4.88086 42.4135 4.87447 42.4121 4.86821H42.412C42.4079 4.8489 42.403 4.82947 42.3973 4.81055C42.2335 4.20313 41.8364 3.67218 41.2171 3.23212C38.6409 1.40259 35.9144 0.593306 33.7871 0.245427C31.7888 -0.0814836 28.2116 -0.0814836 26.2132 0.245427C24.086 0.593434 21.3597 1.40259 18.7837 3.23199C18.1716 3.66668 17.7767 4.19035 17.6093 4.78894C17.5982 4.82167 17.5898 4.85504 17.5839 4.88905C16.9685 7.41343 16.8682 9.56795 16.8527 10.3319L14.3231 11.6867C12.0513 12.9025 10.5784 15.1626 10.3834 17.7237L7.49298 49.8629C7.42701 50.7268 7.58759 51.599 7.9572 52.3856L8.4002 53.3271L8.28232 55.8032C8.26749 56.1141 8.4787 56.3905 8.78247 56.4578L12.4011 57.2595C12.5692 57.2965 12.7455 57.2645 12.8899 57.17C13.0341 57.0754 13.134 56.9267 13.1669 56.7573L13.6528 54.2587C14.0049 53.8784 14.2946 53.4468 14.5149 52.9742C14.7629 52.4446 14.9152 51.8795 14.9672 51.2947L16.4628 37.7201C16.4951 42.5154 16.4699 47.9032 16.2628 51.2971C16.1935 52.4322 16.7079 53.4938 17.5664 54.1604V58.0667C17.5664 58.366 17.774 58.6253 18.0661 58.6907C21.97 59.5634 25.9852 59.9997 30.0004 59.9997C34.0155 59.9997 38.0305 59.5634 41.9336 58.6907C42.2257 58.6253 42.4333 58.366 42.4333 58.0667V54.1609C43.292 53.4942 43.8064 52.4325 43.737 51.2975C43.5298 47.9028 43.5046 42.5122 43.5371 37.7162L45.0338 51.2947C45.1326 52.4006 45.5967 53.4451 46.3469 54.2585L46.833 56.7578C46.866 56.927 46.9659 57.0758 47.1101 57.1704C47.215 57.2392 47.337 57.275 47.4605 57.275C47.5067 57.275 47.5531 57.27 47.5988 57.2599L51.2175 56.4581C51.5213 56.3909 51.7325 56.1145 51.7176 55.8036L51.5998 53.3275L52.0425 52.3865C52.4119 51.6032 52.573 50.7309 52.5074 49.8542ZM41.6524 7.73983C41.8122 8.92193 41.856 9.85229 41.8677 10.3067C39.6182 11.9968 36.6269 13.1457 34.1973 13.8723C34.975 13.3923 35.805 12.8568 36.6235 12.2878C39.0688 10.5881 40.7388 9.08021 41.6524 7.73983ZM24.107 11.2381C22.3587 10.0228 21.0079 8.88549 20.1056 7.88661C22.5237 6.33707 25.064 5.6991 26.9573 5.44455C28.7168 5.20803 31.2938 5.2042 33.068 5.44443C34.9566 5.70025 37.483 6.33963 39.8954 7.88635C38.9947 8.88357 37.6469 10.0188 35.9029 11.2317C33.434 12.9487 30.853 14.3582 30.0002 14.8118C29.1489 14.3589 26.5751 12.9535 24.107 11.2381ZM18.8302 5.17492C18.8312 5.1707 18.8322 5.16661 18.833 5.16226C18.833 5.16226 18.8331 5.16188 18.8331 5.16162C18.8336 5.15945 18.8341 5.1574 18.8345 5.15523C18.8349 5.15382 18.8353 5.15254 18.8357 5.15127C18.9185 4.83471 19.15 4.53976 19.524 4.27422C21.6963 2.73159 24.0202 1.97472 25.9208 1.60894C28.2293 1.16479 31.7784 1.16057 34.0972 1.60894C35.992 1.97536 38.3064 2.73287 40.4767 4.27422C40.8507 4.53976 41.0822 4.83497 41.1651 5.15127C41.1655 5.15254 41.1658 5.15395 41.1662 5.15523C41.1676 5.16188 41.169 5.16853 41.1707 5.17492C41.1707 5.1753 41.1708 5.17569 41.171 5.17607C41.2829 5.63684 41.1129 6.21165 40.6855 6.8748C37.9806 5.10984 35.1679 4.41294 33.0983 4.14995C31.4559 3.9413 28.5456 3.9413 26.904 4.14982C24.8345 4.41268 22.0211 5.10959 19.3156 6.87506C18.8876 6.21139 18.7175 5.63594 18.8302 5.17492ZM18.3478 7.73919C19.2614 9.0797 20.9316 10.5879 23.3774 12.2878C24.1968 12.8574 25.0279 13.3936 25.8065 13.8741C23.3772 13.1481 20.3852 11.9991 18.1329 10.3064C18.1442 9.85242 18.1876 8.92308 18.3478 7.73919ZM9.58498 55.3262L9.64993 53.9624L12.311 54.4614L12.0371 55.8695L9.58498 55.3262ZM18.8449 57.5525V54.7773C26.1447 56.6908 33.8553 56.6908 41.1548 54.7773V57.5525C33.8462 59.1114 26.1548 59.1114 18.8449 57.5525ZM47.9627 55.8695L47.6888 54.4614L50.35 53.9624L50.415 55.3262L47.9627 55.8695ZM50.8858 51.8414L50.5143 52.6308L47.1693 53.2581C46.6776 52.6714 46.3742 51.9433 46.3067 51.1755C46.3063 51.1709 46.3058 51.1662 46.3053 51.1616L43.6842 27.3824C43.6474 27.0479 43.3536 26.7985 43.0214 26.8138C42.6853 26.8281 42.4179 27.1006 42.4098 27.437C42.4057 27.6023 42.014 44.0578 42.461 51.3755C42.5214 52.3649 41.8681 53.2673 40.9078 53.5209C33.7718 55.4059 26.2279 55.4059 19.0917 53.5209C18.1313 53.2673 17.4783 52.3649 17.5389 51.3755C17.9856 44.0578 17.5941 27.6023 17.59 27.437C17.5818 27.1006 17.3144 26.8281 16.9783 26.8138C16.6392 26.7987 16.3523 27.0479 16.3155 27.3824L13.6956 51.1616C13.6951 51.1663 13.6946 51.1711 13.6942 51.1758C13.6557 51.6137 13.5423 52.0363 13.3563 52.4333C13.2169 52.7324 13.0409 53.0086 12.8311 53.2583L9.48538 52.631L9.11411 51.8419C8.83834 51.2549 8.71854 50.6043 8.76687 49.969L11.6574 17.8296C11.8199 15.6974 13.0419 13.8224 14.9267 12.8138L17.5053 11.4324C19.4529 12.8626 22.0704 14.0815 25.2968 15.0587C25.4179 15.0954 25.5371 15.1307 25.6554 15.1653V33.0984C25.6554 33.4515 25.9415 33.7376 26.2946 33.7376C26.6478 33.7376 26.9339 33.4515 26.9339 33.0984V15.5182C28.5874 15.9465 29.748 16.1406 29.8877 16.1633C29.9243 16.1698 29.9619 16.1732 29.9998 16.1732C30.0001 16.1732 30.0004 16.1732 30.0006 16.1732C30.0387 16.1732 30.0762 16.1698 30.1127 16.1633C30.2527 16.1406 31.4132 15.9464 33.0667 15.5182V33.0985C33.0667 33.4516 33.3528 33.7378 33.7059 33.7378C34.0591 33.7378 34.3452 33.4516 34.3452 33.0985V15.1655C34.4635 15.1308 34.5827 15.0955 34.7038 15.0588C37.93 14.0817 40.5473 12.8629 42.495 11.4328L45.0747 12.8139C46.9596 13.8229 48.1812 15.6977 48.3432 17.8384L51.2331 49.9592C51.2815 50.6063 51.1615 51.257 50.8858 51.8414Z" fill="#00B94B"/>
</svg>
