<svg width="60" height="60" viewBox="0 0 60 60" fill="none" xmlns="http://www.w3.org/2000/svg">
<path d="M57.9914 21.7703H45.5508C45.5304 21.7703 45.5106 21.7721 45.4905 21.7732C41.4814 21.7744 37.8936 22.0843 35.6229 22.3393C35.0926 22.3988 34.5929 22.5589 34.1439 22.807H25.856C25.4068 22.5591 24.9071 22.3989 24.377 22.3393C22.1063 22.0843 18.5182 21.7744 14.5087 21.7732C14.4889 21.7721 14.4693 21.7703 14.4492 21.7703H2.00864C0.901037 21.7703 0 22.6713 0 23.7789V25.8523C0 26.9599 0.901037 27.861 2.00864 27.861H3.35689L4.04929 31.9353C4.51503 34.6758 6.61503 36.8402 9.39927 37.4492C12.0391 38.0266 14.5905 38.2298 16.8748 38.2298C19.0731 38.2298 21.024 38.0415 22.5679 37.8171C24.7205 37.5043 26.3894 35.8752 26.7205 33.7633L27.3511 29.7412C27.3818 29.7183 27.4117 29.6939 27.4402 29.6669C27.8138 29.312 28.7083 28.8976 30.0003 28.8976C31.2923 28.8976 32.1867 29.312 32.5603 29.6669C32.5888 29.694 32.6187 29.7183 32.6495 29.7412L33.28 33.7633C33.6111 35.8751 35.28 37.5043 37.4326 37.8171C38.9767 38.0415 40.9271 38.2298 43.1257 38.2298C45.4098 38.2298 47.9616 38.0265 50.6012 37.4492C53.3855 36.8401 55.4855 34.6758 55.9512 31.9353L56.6436 27.861H57.9914C59.099 27.861 60 26.9599 60 25.8523V23.7789C60 22.6713 59.099 21.7703 57.9914 21.7703ZM3.86773 23.7937C3.40238 24.4237 3.14527 25.1575 3.11352 25.9171H2.00864C1.973 25.9171 1.94384 25.8881 1.94384 25.8523V23.7789C1.94384 23.7431 1.973 23.7141 2.00864 23.7141H3.92955C3.90894 23.7408 3.88769 23.7665 3.86773 23.7937ZM25.8947 26.4797L24.8 33.4624C24.6017 34.727 23.5923 35.704 22.288 35.8936C19.2995 36.3278 14.7097 36.621 9.81447 35.5503C7.80855 35.1115 6.29767 33.5647 5.9654 31.6096L5.08108 26.4053C4.99361 25.8902 5.11788 25.3727 5.43136 24.9483C5.74691 24.5212 6.21136 24.2478 6.73918 24.1787C9.33253 23.8392 11.9912 23.7158 14.4877 23.7158C18.4114 23.7158 21.9333 24.0208 24.1602 24.271C24.7121 24.3329 25.1977 24.6052 25.5275 25.0376C25.8448 25.4537 25.9752 25.9657 25.8947 26.4797ZM32.185 26.7807L32.2691 27.3171C31.5876 27.0825 30.8105 26.9538 30 26.9538C29.1895 26.9538 28.4124 27.0825 27.7309 27.3171L27.815 26.7807C27.9245 26.0826 27.8416 25.387 27.5828 24.7507H32.4172C32.1584 25.387 32.0756 26.0825 32.185 26.7807ZM54.9189 26.4054L54.0346 31.6096C53.7023 33.5646 52.1914 35.1114 50.1855 35.5503C45.2904 36.621 40.7003 36.3278 37.712 35.8936C36.4078 35.704 35.3983 34.727 35.2 33.4624L34.1054 26.4797C34.0249 25.9657 34.1553 25.4536 34.4727 25.0376C34.8025 24.6052 35.288 24.3329 35.84 24.271C39.4836 23.8617 46.592 23.3056 53.261 24.1788C53.7888 24.2479 54.2532 24.5213 54.5688 24.9485C54.8821 25.3729 55.0064 25.8904 54.9189 26.4054ZM58.0562 25.8523C58.0562 25.8881 58.027 25.9171 57.9914 25.9171H56.8866C56.8547 25.1575 56.5978 24.4237 56.1324 23.7937C56.1123 23.7666 56.0912 23.7407 56.0706 23.7141H57.9914C58.027 23.7141 58.0562 23.7431 58.0562 23.7789V25.8523Z" fill="#00B94B"/>
</svg>
