<svg width="60" height="60" viewBox="0 0 60 60" fill="none" xmlns="http://www.w3.org/2000/svg">
<path fill-rule="evenodd" clip-rule="evenodd" d="M54.1178 14.7891L55.1639 45.6171C55.1965 46.5796 54.7473 47.4871 54.0028 48.057L54.1465 51.0738C54.2018 52.2355 53.5658 53.3232 52.5262 53.8448L44.9686 57.6361V58.0583C44.9686 59.1289 44.0977 59.9999 43.0271 59.9999H16.9728C15.9021 59.9999 15.0312 59.1289 15.0312 58.0583V57.6361L7.47365 53.845C6.43385 53.3232 5.79799 52.2355 5.85318 51.0738L5.99685 48.057C5.25225 47.4871 4.80307 46.5795 4.83564 45.6171L5.88178 14.7891C5.97389 12.0773 7.65154 9.65098 10.156 8.60754L14.2793 6.88957L17.5882 1.41996C18.118 0.544101 19.0832 0 20.1068 0H39.8928C40.9165 0 41.8815 0.544101 42.4115 1.41996L45.7204 6.88957L49.8436 8.60754C52.3481 9.65098 54.0258 12.0776 54.1178 14.7891ZM30.293 8.00777L38.2607 1.87887H21.8658L30.293 8.00777ZM19.2571 2.30496C19.2356 2.3332 19.2143 2.3618 19.1958 2.3925L17.2153 5.66637L17.6507 5.48496C18.5381 5.115 19.5521 5.20254 20.3632 5.71875L27.4262 10.2135L28.7407 9.20227L19.2571 2.30496ZM7.68518 17.0471L7.55264 20.9541L7.48713 22.8854L6.71346 45.6806C6.69857 46.1214 6.96213 46.5309 7.36924 46.7002L12.211 48.7114L13.0273 20.9535C13.0425 20.4349 13.4765 20.0319 13.994 20.0421C14.5125 20.0575 14.9206 20.4902 14.9053 21.0089L14.8159 24.0502L14.7606 25.929L14.698 28.0584L14.6427 29.9374L13.9942 51.9852C13.9776 52.5485 14.1847 53.0814 14.5773 53.4857C14.9699 53.8902 15.4965 54.1127 16.0602 54.1127H29.0603V29.9374V28.0584V25.929V24.0502L29.0604 13.4802L19.3546 7.30371C19.061 7.11691 18.6945 7.08527 18.3735 7.2191L10.8788 10.3419C9.05111 11.1034 7.82686 12.874 7.75959 14.8527L7.7508 15.1127L7.68518 17.0471ZM7.73006 51.1631C7.71014 51.5835 7.94006 51.9768 8.316 52.1655L12.9702 54.5004C12.3896 53.7725 12.0884 52.8736 12.1162 51.9299L12.1518 50.7214L7.83646 48.9288L7.73006 51.1631ZM16.9726 58.1211H29.0603L29.0604 55.9917H16.9101V58.0586C16.9101 58.0929 16.9381 58.1211 16.9726 58.1211ZM40.7587 2.3277L29.1126 11.2862L29.9998 11.8509L39.6366 5.71863C40.4476 5.2023 41.4617 5.11477 42.3491 5.48484L42.7844 5.66625L40.8039 2.39238C40.7941 2.37624 40.7831 2.36121 40.7721 2.34618L40.7587 2.3277ZM45.3014 28.0584L45.2388 25.929L45.1837 24.0502L45.0941 21.0089C45.0788 20.4901 45.4869 20.0573 46.0055 20.0421C46.5224 20.0309 46.9569 20.4348 46.9722 20.9535L47.7886 48.7114L52.6303 46.7002C53.0376 46.5309 53.301 46.1214 53.286 45.6807L52.2399 14.8528C52.1727 12.8741 50.9485 11.1035 49.1209 10.342L41.6263 7.21922C41.3053 7.08551 40.9385 7.11715 40.6452 7.30383L30.9393 13.4803V24.0502V25.929V28.0584V29.9374V54.1127H43.9392C44.5029 54.1127 45.0296 53.8901 45.4221 53.4857C45.8147 53.0815 46.0218 52.5485 46.0054 51.9852L45.3569 29.9374L45.3014 28.0584ZM43.0269 58.121C43.0615 58.121 43.0895 58.0929 43.0895 58.0584L43.0896 55.9916H30.9393V58.121H43.0269ZM47.0292 54.5002L51.6835 52.1654C52.0595 51.9768 52.2894 51.5835 52.2693 51.163L52.163 48.9287L47.8477 50.7213L47.8833 51.9298C47.9111 52.8735 47.6098 53.7724 47.0292 54.5002Z" fill="black"/>
<path d="M21.2782 40.1316C20.7862 39.9679 20.254 40.2335 20.0898 40.7257L17.0836 49.7445C16.9196 50.2368 17.1856 50.7688 17.6779 50.9329C17.7764 50.9657 17.8765 50.9814 17.9751 50.9814C18.3683 50.9814 18.7349 50.7325 18.8662 50.3388L21.8724 41.3201C22.0364 40.8277 21.7704 40.2956 21.2782 40.1316Z" fill="black"/>
<path d="M42.9164 49.7448L39.9102 40.726C39.746 40.2338 39.214 39.968 38.7218 40.1319C38.2295 40.2959 37.9636 40.8281 38.1275 41.3203L41.1337 50.339C41.265 50.7328 41.6315 50.9816 42.0248 50.9816C42.1233 50.9816 42.2235 50.9658 42.322 50.933C42.8144 50.769 43.0803 50.2368 42.9164 49.7448Z" fill="black"/>
</svg>
