<svg width="60" height="60" viewBox="0 0 60 60" fill="none" xmlns="http://www.w3.org/2000/svg">
<g clip-path="url(#clip0_241_415)">
<path d="M33.6568 5.67033C33.1742 5.37348 32.5369 5.5219 32.2318 6.00038C32.1768 6.08653 30.8441 8.10321 26.8875 8.10321C26.3146 8.10321 25.8496 8.56716 25.8496 9.14113C25.8496 9.7151 26.3146 10.179 26.8875 10.179C32.0865 10.179 33.9288 7.20748 34.0045 7.08086C34.2962 6.59511 34.1384 5.97028 33.6568 5.67033Z" fill="black"/>
<path d="M40.8982 28.8625H39.8603V22.635C39.8603 22.0611 39.3953 21.5971 38.8223 21.5971H37.5945C37.7097 21.2733 37.7844 20.9308 37.7844 20.5685V3.94316C37.7844 2.34788 36.5846 0.810719 35.0402 0.411121C34.5139 0.221182 31.7001 -0.648594 28.0342 0.922815C24.5759 2.40496 23.6116 4.22028 23.375 4.8285C22.6474 6.01484 22.2156 7.92358 22.2156 9.13379V20.5675C22.2156 20.9308 22.2904 21.2733 22.4056 21.5971H21.1777C20.6048 21.5971 20.1398 22.0611 20.1398 22.635V28.8625H19.1019C18.529 28.8625 18.064 29.3265 18.064 29.9005V58.9622C18.064 59.5362 18.529 60.0001 19.1019 60.0001H40.8982C41.4711 60.0001 41.9361 59.5362 41.9361 58.9622V29.9005C41.9361 29.3265 41.4711 28.8625 40.8982 28.8625ZM24.2915 20.5675V9.13379C24.2915 8.1104 24.7077 6.5774 25.182 5.85397C25.2298 5.78027 25.2796 5.66714 25.3076 5.58411C25.3128 5.56958 25.8338 4.12376 28.8521 2.83051C30.2336 2.2389 31.4417 2.07075 32.3717 2.07075C33.5601 2.07075 34.2918 2.34684 34.3406 2.36552C34.3904 2.38628 34.4423 2.40289 34.4953 2.41534C35.1305 2.5648 35.7086 3.29342 35.7086 3.9442V20.5685C35.7086 21.1363 35.2415 21.5971 34.6676 21.5971H25.3325C24.7585 21.5971 24.2915 21.1352 24.2915 20.5675ZM22.2156 23.673H25.3325H34.6676H37.7844V28.8625H22.2156V23.673ZM39.8603 57.9243H20.1398V30.9384H21.1777H38.8223H39.8603V57.9243Z" fill="black"/>
</g>
<defs>
<clipPath id="clip0_241_415">
<rect width="60" height="60" fill="white"/>
</clipPath>
</defs>
</svg>
