<svg width="60" height="60" viewBox="0 0 60 60" fill="none" xmlns="http://www.w3.org/2000/svg">
<path d="M30.0001 7.63647C29.3976 7.63647 28.9092 8.12491 28.9092 8.72737V19.6365C28.9092 20.2389 29.3976 20.7274 30.0001 20.7274C30.6025 20.7274 31.091 20.2389 31.091 19.6365V8.72737C31.091 8.12491 30.6025 7.63647 30.0001 7.63647Z" fill="#00B94B"/>
<path d="M47.4539 1.04977C47.4318 0.463711 46.9502 0 46.3637 0H13.6365C13.05 0 12.5685 0.463711 12.5465 1.04977L10.3645 58.8681C10.3534 59.1642 10.4631 59.4521 10.669 59.6658C10.8747 59.8794 11.1583 60 11.4547 60H25.6365C26.198 60 26.6678 59.5739 26.7224 59.0152L29.2859 32.7384C29.5303 30.2313 29.7844 28.6253 30.0001 27.6019C30.2156 28.6253 30.4697 30.2312 30.7141 32.7384L33.2779 59.0152C33.3325 59.5739 33.8023 60 34.3637 60H48.5455C48.8419 60 49.1256 59.8793 49.3313 59.6658C49.5372 59.4521 49.6469 59.1642 49.6357 58.8681L47.4539 1.04977ZM39.8183 2.1818H45.3134L45.3956 4.36359H39.8183V2.1818ZM31.091 2.1818H37.6365V4.36359H31.091V2.1818ZM21.2728 2.1818H28.9092V4.36359H21.2728V2.1818ZM14.6869 2.1818H19.091V4.36359H14.6046L14.6869 2.1818ZM35.3535 57.8182L32.8859 32.5264C32.6379 29.9851 32.346 28.0061 32.0187 26.6443C31.7877 25.6843 31.3579 23.8972 30.0001 23.8972C28.6424 23.8972 28.2124 25.6841 27.9816 26.6439C27.6539 28.0057 27.3624 29.9848 27.1142 32.5266L24.6469 57.8183H12.5874L14.0677 18.591C14.1489 18.5944 14.2343 18.597 14.3278 18.597C15.2105 18.597 16.6103 18.4132 17.951 17.4645C19.72 16.2131 20.8338 14.0593 21.2618 11.0634C21.347 10.467 20.9326 9.9143 20.336 9.8291C19.7408 9.74414 19.187 10.1584 19.1018 10.7548C18.7647 13.1154 17.963 14.7668 16.7189 15.6632C15.7131 16.3881 14.6581 16.4407 14.1497 16.4145L14.5221 6.54551H19.0909H21.2727H28.9091H31.0909H37.6364H39.8182H45.4779L45.8503 16.4143C45.3423 16.4408 44.2873 16.3886 43.2811 15.6633C42.037 14.7669 41.2354 13.1155 40.8982 10.7549C40.813 10.1584 40.2595 9.74473 39.664 9.82922C39.0674 9.91441 38.653 10.4671 38.7382 11.0636C39.1662 14.0595 40.2801 16.2131 42.049 17.4646C43.39 18.4134 44.7895 18.5971 45.6722 18.5971C45.7657 18.5971 45.8511 18.5945 45.9324 18.5911L47.4127 57.8184H35.3535V57.8182Z" fill="#00B94B"/>
</svg>
