<svg width="60" height="60" viewBox="0 0 60 60" fill="none" xmlns="http://www.w3.org/2000/svg">
<path fill-rule="evenodd" clip-rule="evenodd" d="M35.8124 20.1564H53.3904C55.3289 20.1564 56.906 21.7335 56.906 23.6719V56.4843C56.906 58.4228 55.3289 59.9999 53.3904 59.9999H6.51561C4.5771 59.9999 3 58.4228 3 56.4843V23.6719C3 21.7334 4.5771 20.1563 6.51561 20.1563H24.0938L24.0937 16.4062C23.4466 16.4062 22.9218 15.8815 22.9218 15.2343V3.51561C22.9218 1.5771 24.4989 0 26.4374 0H33.4686C35.4071 0 36.9842 1.5771 36.9842 3.51561V15.2343C36.9842 15.8815 36.4595 16.4062 35.8124 16.4062V20.1564ZM53.3904 22.5001H34.6405C33.9934 22.5001 33.4686 21.9755 33.4686 21.3282V16.4062H31.1249H28.7811H26.4375V21.3284C26.4375 21.9756 25.9128 22.5003 25.2657 22.5003H6.51561C5.86944 22.5003 5.34374 23.026 5.34374 23.6721V27.3812V29.7862V56.4844C5.34374 57.1306 5.86944 57.6563 6.51561 57.6563H53.3904C54.0366 57.6563 54.5623 57.1306 54.5622 56.4845V29.3355L54.5623 26.9284V23.672C54.5623 23.0258 54.0366 22.5001 53.3904 22.5001ZM28.781 34.219H15.8905C15.2434 34.219 14.7186 34.7436 14.7186 35.3908V49.4533C14.7186 50.1005 15.2434 50.6252 15.8905 50.6252H28.781L31.1248 50.625H44.0153C44.6625 50.625 45.1872 50.1004 45.1872 49.4532V35.3907C45.1872 34.7435 44.6625 34.2189 44.0153 34.2189H31.1248L28.781 34.219ZM17.0624 36.5626V48.2813H42.8436V36.5626H17.0624ZM26.4374 2.34374C25.7912 2.34374 25.2655 2.86944 25.2655 3.51561V14.0624H34.6405V3.51561C34.6405 2.86944 34.1148 2.34374 33.4686 2.34374H26.4374Z" fill="#00B94B"/>
<path d="M31.1249 26.8485V16.4062H28.7811V27.1093L28.781 29.4677V34.219L31.1248 34.2189V29.2065L31.1249 26.8485Z" fill="#00B94B"/>
<path d="M30.0005 4.68774H29.9995C29.3524 4.68774 28.8281 5.21239 28.8281 5.85961C28.8281 6.50684 29.3532 7.03148 30.0005 7.03148C30.6477 7.03148 31.1723 6.50684 31.1723 5.85961C31.1723 5.21239 30.6476 4.68774 30.0005 4.68774Z" fill="#00B94B"/>
</svg>
