<svg width="60" height="60" viewBox="0 0 60 60" fill="none" xmlns="http://www.w3.org/2000/svg">
<path fill-rule="evenodd" clip-rule="evenodd" d="M53.4373 20.1564H35.8592V16.4062C36.5064 16.4062 37.0311 15.8815 37.0311 15.2343V3.51561C37.0311 1.5771 35.454 0 33.5155 0H26.4843C24.5458 0 22.9687 1.5771 22.9687 3.51561V15.2343C22.9687 15.8815 23.4934 16.4062 24.1405 16.4062L24.1407 20.1563H6.56249C4.62398 20.1563 3.04688 21.7334 3.04688 23.6719V56.4843C3.04688 58.4228 4.62398 59.9999 6.56249 59.9999H53.4373C55.3758 59.9999 56.9529 58.4228 56.9529 56.4843V23.6719C56.9529 21.7335 55.3758 20.1564 53.4373 20.1564ZM34.6874 22.5001H53.4373C54.0835 22.5001 54.6092 23.0258 54.6092 23.672V26.9284L54.6091 29.3355V56.4845C54.6092 57.1306 54.0835 57.6563 53.4373 57.6563H6.56249C5.91632 57.6563 5.39062 57.1306 5.39062 56.4844V29.7862V27.3812V23.6721C5.39062 23.026 5.91632 22.5003 6.56249 22.5003H25.3125C25.9596 22.5003 26.4844 21.9756 26.4844 21.3284V16.4062H28.828V27.1093L28.8279 29.4677V34.219H15.9373C15.2902 34.219 14.7655 34.7436 14.7655 35.3908V49.4533C14.7655 50.1005 15.2902 50.6252 15.9373 50.6252H28.8279L31.1716 50.625H44.0622C44.7093 50.625 45.2341 50.1004 45.2341 49.4532V35.3907C45.2341 34.7435 44.7093 34.2189 44.0622 34.2189H31.1716V29.2065L31.1718 26.8485V16.4062H33.5155V21.3282C33.5155 21.9755 34.0403 22.5001 34.6874 22.5001ZM17.1093 48.2813V36.5626H42.8905V48.2813H17.1093ZM25.3124 3.51561C25.3124 2.86944 25.8381 2.34374 26.4843 2.34374H33.5155C34.1617 2.34374 34.6874 2.86944 34.6874 3.51561V14.0624H25.3124V3.51561Z" fill="black"/>
<path d="M30.0005 4.68774H29.9995C29.3524 4.68774 28.8281 5.21239 28.8281 5.85961C28.8281 6.50684 29.3532 7.03148 30.0005 7.03148C30.6477 7.03148 31.1723 6.50684 31.1723 5.85961C31.1723 5.21239 30.6476 4.68774 30.0005 4.68774Z" fill="black"/>
<path d="M37.0312 38.9062H22.9687C22.3216 38.9062 21.7969 39.4309 21.7969 40.0781C21.7969 40.7253 22.3216 41.25 22.9687 41.25H37.0312C37.6783 41.25 38.2031 40.7253 38.2031 40.0781C38.2031 39.4309 37.6783 38.9062 37.0312 38.9062Z" fill="black"/>
<path d="M34.6875 43.594H25.3125C24.6654 43.594 24.1406 44.1186 24.1406 44.7659C24.1406 45.4131 24.6654 45.9377 25.3125 45.9377H34.6875C35.3346 45.9377 35.8593 45.4131 35.8593 44.7659C35.8593 44.1186 35.3346 43.594 34.6875 43.594Z" fill="black"/>
</svg>
