<svg width="60" height="60" viewBox="0 0 60 60" fill="none" xmlns="http://www.w3.org/2000/svg">
<path d="M37.1545 10.0006V1.40614C37.1545 0.629528 36.5249 0 35.7484 0H24.2514C23.4749 0 22.8453 0.629528 22.8453 1.40614V10.0006C18.2073 11.4824 14.8389 15.8321 14.8389 20.9551V56.5391C14.8389 58.4473 16.3914 59.9999 18.2997 59.9999H41.7002C43.6084 59.9999 45.1609 58.4473 45.1609 56.5391V20.9552C45.1609 15.8321 41.7925 11.4824 37.1545 10.0006ZM25.6575 2.81227H34.3423V9.47877C34.1173 9.46555 33.891 9.45697 33.6628 9.45697H26.3371C26.1088 9.45697 25.8827 9.46555 25.6575 9.47877V2.81227ZM42.3487 56.5392C42.3487 56.8968 42.0577 57.1877 41.7002 57.1877H18.2997C17.9421 57.1877 17.6511 56.8968 17.6511 56.5392V20.9552C17.6511 16.1658 21.5477 12.2692 26.3371 12.2692H33.6628C38.4523 12.2692 42.3487 16.1658 42.3487 20.9552V56.5392Z" fill="#00B94B"/>
<path d="M36.0515 26.5044H23.9486C21.8775 26.5044 20.1926 28.1892 20.1926 30.2603V44.6834C20.1926 46.7543 21.8775 48.4393 23.9486 48.4393H36.0515C38.1226 48.4393 39.8074 46.7545 39.8074 44.6834V30.2602C39.8074 28.1892 38.1226 26.5044 36.0515 26.5044ZM37.6982 44.6832C37.6982 45.5912 36.9594 46.3299 36.0515 46.3299H23.9486C23.0406 46.3299 22.3018 45.5913 22.3018 44.6832V30.2602C22.3018 29.3522 23.0406 28.6135 23.9486 28.6135H36.0515C36.9594 28.6135 37.6982 29.3521 37.6982 30.2602V44.6832Z" fill="#00B94B"/>
</svg>
