<svg width="61" height="60" viewBox="0 0 61 60" fill="none" xmlns="http://www.w3.org/2000/svg">
<path d="M43.9259 14.765L40.9732 0.987539C40.8487 0.411328 40.3385 0 39.7501 0H22.25C21.6616 0 21.1514 0.411328 21.0268 0.987539L18.074 14.765C13.7537 18.4364 11 23.8993 11 30C11 36.1009 13.7538 41.5642 18.0747 45.2355L21.0268 59.0125C21.1514 59.5887 21.6616 60 22.25 60H39.75C40.3384 60 40.8486 59.5887 40.9732 59.0125L43.9252 45.2355C48.2462 41.5642 51 36.1009 51 30C51.0001 23.8993 48.2464 18.4364 43.9259 14.765ZM23.2607 2.49996H38.7392L40.9149 12.6544C37.9887 10.9751 34.6091 9.99996 31 9.99996C27.391 9.99996 24.0113 10.975 21.085 12.6544L23.2607 2.49996ZM38.7393 57.5H23.2607L21.0854 47.346C24.0116 49.0252 27.3911 50 30.9999 50C34.6087 50 37.9883 49.0252 40.9145 47.346L38.7393 57.5ZM31 47.5C21.3516 47.5 13.5001 39.6496 13.5001 30C13.5001 20.3504 21.3516 12.5 31 12.5C40.6484 12.5 48.5 20.3503 48.5 30C48.5 39.6497 40.6484 47.5 31 47.5Z" fill="black"/>
<path d="M33.3766 30.6092C33.4283 30.4091 33.4999 30.216 33.4999 30C33.4999 29.0867 32.9833 28.3205 32.2499 27.8841V18.75C32.2499 18.0591 31.6908 17.5 30.9998 17.5C30.3089 17.5 29.7498 18.0591 29.7498 18.75V27.8841C29.0163 28.3205 28.4998 29.0867 28.4998 30C28.4998 31.3782 29.6204 32.5 30.9997 32.5C31.2156 32.5 31.4088 32.4284 31.6089 32.3767L36.366 37.1338C36.6101 37.3779 36.93 37.5 37.2498 37.5C37.5696 37.5 37.8894 37.3779 38.1336 37.1338C38.6219 36.6455 38.6219 35.8545 38.1336 35.3663L33.3766 30.6092Z" fill="black"/>
</svg>
