<svg width="60" height="60" viewBox="0 0 60 60" fill="none" xmlns="http://www.w3.org/2000/svg">
<g clip-path="url(#clip0_241_389)">
<path d="M32.7757 0H27.2239C25.446 0 24 1.34695 24 3.00293V6.65578C24 6.9648 24.143 7.25672 24.387 7.4468C24.565 7.58379 24.7809 7.65574 25 7.65574C25.0829 7.65574 25.167 7.64578 25.249 7.62375C28.4579 6.79676 31.5377 6.79582 34.7496 7.62375C35.0496 7.70273 35.3686 7.6357 35.6126 7.44574C35.8566 7.25578 35.9995 6.96375 35.9995 6.65473V3.00293C35.9995 1.34695 34.5536 0 32.7757 0ZM33.9996 5.40188C31.3017 4.86691 28.6968 4.86785 25.9999 5.40188V3.00293C25.9999 2.44992 26.5489 1.99992 27.2238 1.99992H32.7756C33.4506 1.99992 33.9995 2.44992 33.9995 3.00293L33.9996 5.40188Z" fill="black"/>
<path d="M50.5245 4.81288C50.3386 4.33687 49.8255 4.07894 49.3316 4.21089C46.9066 4.8689 44.5548 7.66874 43.1938 11.5196C43.0647 11.8836 43.1567 12.2886 43.4298 12.5606C47.0217 16.1485 48.9996 20.9214 48.9996 25.9992C48.9996 26.5512 49.4476 26.9992 49.9995 26.9992C50.5515 26.9992 50.9995 26.5512 50.9995 25.9992V7.06277C50.9984 6.95577 50.9795 5.97679 50.5245 4.81288ZM48.9996 17.0294C48.0686 15.0615 46.8256 13.2346 45.2947 11.6106C46.2197 9.27562 47.5816 7.40472 48.9416 6.55476C48.9945 6.86777 48.9996 7.0698 48.9996 7.0698V17.0294Z" fill="black"/>
<path d="M46.2864 1.11409C43.3935 0.38214 40.1946 3.11999 38.3286 7.91987C38.1436 8.39484 38.3456 8.93179 38.7965 9.1678C45.0893 12.4646 48.9992 18.9145 48.9992 25.9992C48.9992 26.5512 49.4473 26.9992 49.9992 26.9992C50.5512 26.9992 50.9992 26.5512 50.9992 25.9992V7.06886C50.9992 5.41991 50.0142 2.05405 46.2864 1.11409ZM48.9992 17.0446C47.2093 13.2487 44.2884 10.0208 40.5295 7.84089C41.9675 4.66101 44.1564 2.6421 45.7973 3.05401C48.9272 3.84198 48.9982 6.94288 48.9992 7.06886V17.0446Z" fill="black"/>
<path d="M21.671 7.92081C19.8051 3.11999 16.6072 0.389051 13.7133 1.11503C9.98545 2.05405 9.00049 5.41991 9.00049 7.06886V25.9992C9.00049 26.5512 9.4485 26.9992 10.0004 26.9992C10.5524 26.9992 11.0004 26.5512 11.0004 25.9992C11.0004 18.9144 14.9103 12.4646 21.2031 9.16874C21.654 8.93284 21.8561 8.39577 21.671 7.92081ZM11.0004 17.0446V7.07483C11.0015 6.94288 11.0724 3.84292 14.2023 3.05401C14.3453 3.01804 14.4924 2.99999 14.6433 2.99999C16.2232 2.99999 18.1572 4.93792 19.4701 7.84077C15.7112 10.0208 12.7903 13.2497 11.0004 17.0446Z" fill="black"/>
<path d="M16.8062 11.5196C15.4443 7.66866 13.0923 4.86776 10.6675 4.2108C10.1755 4.07979 9.66049 4.33678 9.47451 4.81174C9.02053 5.97565 9.00154 6.95463 9.00049 7.06866V25.999C9.00049 26.551 9.4485 26.999 10.0004 26.999C10.5524 26.999 11.0004 26.551 11.0004 25.999C11.0004 20.9212 12.9783 16.1483 16.5702 12.5604C16.8433 12.2885 16.9342 11.8835 16.8062 11.5196ZM11.0004 17.0294V7.07569C11.0004 7.0717 11.0044 6.86873 11.0574 6.55373C12.4173 7.4037 13.7802 9.27565 14.7053 11.6106C13.1744 13.2345 11.9313 15.0614 11.0004 17.0294Z" fill="black"/>
<path fill-rule="evenodd" clip-rule="evenodd" d="M51.2474 38.9988H42.9999H17.0008H8.75289C7.2359 38.9988 6.00098 40.2337 6.00098 41.7507V53.4383C6.00098 57.0571 8.94484 60.0001 12.5637 60.0001H47.4366C51.0555 60.0001 53.9993 57.0571 53.9993 53.4383V41.7507C53.9993 40.2337 52.7644 38.9988 51.2474 38.9988ZM47.4377 58.0001C49.9536 58.0001 52.0005 55.9532 52.0005 53.4383L52.0006 41.7507C51.9996 41.3357 51.6617 40.9987 51.2477 40.9987H42.9999H17.0008H8.75301C8.33898 40.9987 8.00102 41.3357 8.00102 41.7507V53.4383C8.00102 55.9542 10.0479 58.0001 12.5638 58.0001H47.4377Z" fill="black"/>
<path fill-rule="evenodd" clip-rule="evenodd" d="M29.9998 4.99976C18.4212 4.99976 9.00049 14.4194 9.00049 25.9991V39.9986C9.00049 40.5506 9.4485 40.9986 10.0004 40.9986H17.0003L43 41L49.999 40.9986C50.551 40.9986 50.999 40.5506 50.999 39.9986V25.9991C50.9991 14.4195 41.5784 4.99976 29.9998 4.99976ZM11.0004 38.9987H17.0003L43 39L48.9992 38.9987V25.9991C48.9992 15.5224 40.4765 6.99968 29.9998 6.99968C19.5231 6.99968 11.0004 15.5224 11.0004 25.9991V38.9987Z" fill="black"/>
<path d="M39.7065 21.2924L30.7068 12.2927C30.3168 11.9018 29.6829 11.9018 29.2929 12.2927L20.2932 21.2924C19.9023 21.6833 19.9023 22.3153 20.2932 22.7063L29.2929 31.706C29.4879 31.901 29.7438 31.999 29.9998 31.999C30.2558 31.999 30.5118 31.901 30.7068 31.706L39.7065 22.7063C40.0975 22.3154 40.0975 21.6834 39.7065 21.2924ZM29.9998 29.5851L22.4141 21.9994L29.9998 14.4136L37.5856 21.9994L29.9998 29.5851Z" fill="black"/>
<path d="M28 18.9993C27.448 18.9993 27 19.4473 27 19.9992V23.9991C27 24.551 27.448 24.999 28 24.999C28.5519 24.999 28.9999 24.551 28.9999 23.9991V19.9992C28.9999 19.4473 28.5519 18.9993 28 18.9993Z" fill="black"/>
<path d="M32 18.9993C31.448 18.9993 31 19.4473 31 19.9992V23.9991C31 24.551 31.448 24.999 32 24.999C32.5519 24.999 32.9999 24.551 32.9999 23.9991V19.9992C32.9999 19.4473 32.5519 18.9993 32 18.9993Z" fill="black"/>
</g>
<defs>
<clipPath id="clip0_241_389">
<rect width="60" height="60" fill="white"/>
</clipPath>
</defs>
</svg>
