<svg width="61" height="60" viewBox="0 0 61 60" fill="none" xmlns="http://www.w3.org/2000/svg">
<g clip-path="url(#clip0_191_99)">
<path d="M59.9998 38.4971C59.9998 33.4994 57.092 31.1857 51.7118 30.103C51.2413 30.0083 50.7519 29.9212 50.1762 29.8274C49.9557 29.7915 49.7338 29.7563 49.437 29.7099C49.0763 29.6538 48.8904 29.6249 48.7263 29.5991C47.9569 29.4778 47.4554 29.3899 46.9997 29.2916C46.3931 29.1609 45.3837 28.6912 44.0464 27.9302C44.038 27.9252 44.0308 27.9193 44.0222 27.9145C43.3486 27.5321 42.5949 27.0758 41.7615 26.5475C42.2242 25.4552 42.0112 24.1445 41.1209 23.2544C39.9494 22.0829 38.0492 22.0829 36.8777 23.2544L36.871 23.261C36.4086 22.9367 35.932 22.5992 35.4374 22.2459C36.2802 21.0734 36.1751 19.4298 35.121 18.3758C33.9495 17.2043 32.0493 17.2043 30.8778 18.3758L30.5689 18.6848C29.2933 17.7321 28.09 16.8192 27.0412 16.0125C26.6129 15.6829 26.1071 15.5151 25.6004 15.5038C25.3653 15.4985 25.1303 15.5286 24.9025 15.5902C24.4994 15.6992 24.1193 15.9103 23.8054 16.2241L21.7515 18.278C20.749 19.2806 20.749 20.9067 21.7515 21.9092L22.3119 22.4696C22.4696 22.6288 22.4617 22.8733 22.3342 23.0171C22.2982 23.055 22.2553 23.0882 22.2023 23.1114C22.1102 23.1509 22.019 23.1878 21.9276 23.2251C21.814 23.2703 21.6865 23.3195 21.5244 23.3808C21.5076 23.3871 21.4922 23.3953 21.476 23.4025C17.1407 25.0322 13.7013 24.2408 10.9971 21.9118C10.3985 21.3961 9.88812 20.8431 9.4673 20.292C9.22016 19.9683 9.06195 19.7249 8.99258 19.6022C8.8461 19.343 8.5918 19.1624 8.29872 19.1098C5.91257 18.6813 4.40965 22.2381 2.80478 29.0597C2.32607 31.0943 1.89084 33.2702 1.50658 35.4454C1.37217 36.2063 1.25381 36.913 1.15233 37.5477C1.10194 37.8633 1.06467 38.1037 1.041 38.2615L0.0537055 41.1373C-0.0216455 41.3568 -0.0183643 41.5957 0.0631976 41.8131C0.25468 42.3238 0.819754 42.9009 1.88744 43.389C3.42493 44.0919 5.77979 44.497 9.13953 44.497H52.9992C53.2884 44.481 53.6574 44.4377 54.1237 44.349C54.8977 44.2017 55.6733 43.9747 56.4067 43.6473C58.6116 42.6633 60.0003 40.9752 59.9989 38.5123C59.9991 38.5073 59.9998 38.5022 59.9998 38.4971ZM5.91456 37.497H3.18751C3.25266 37.0982 3.32485 36.6692 3.40372 36.2147C3.63563 34.879 3.89063 33.5223 4.16602 32.1868C5.31749 33.2962 5.99952 34.8365 5.99952 36.4974C5.99952 36.8331 5.97092 37.1668 5.91456 37.497ZM23.1569 29.7542C24.583 28.3282 24.6673 26.1361 23.5518 24.6161C23.6833 24.5107 23.8004 24.393 23.9032 24.2658C23.9061 24.2622 23.9091 24.2585 23.9121 24.2549C23.9296 24.2329 23.9468 24.2107 23.9634 24.1882C23.9805 24.1654 23.9972 24.1422 24.0133 24.1189C24.0179 24.1122 24.0226 24.1056 24.027 24.0989C24.6387 23.2 24.6014 21.9305 23.7479 21.0772L23.7302 21.0595C23.7287 21.0579 23.7273 21.0562 23.7256 21.0547L23.1662 20.4951C22.9447 20.2736 22.9447 19.9137 23.1662 19.6924L25.2201 17.6384C25.2782 17.5803 25.3481 17.5416 25.422 17.521C25.4595 17.5106 25.498 17.5054 25.5366 17.5047C25.6364 17.5031 25.7368 17.5329 25.8213 17.5978C26.8089 18.3574 27.9393 19.2158 29.1394 20.1144L28.7567 20.4971C28.7366 20.5171 28.718 20.538 28.6986 20.5585C28.6817 20.5763 28.6645 20.5938 28.6481 20.6118C28.626 20.6363 28.6052 20.6614 28.5841 20.6863C28.5712 20.7017 28.5578 20.7167 28.5453 20.7323C28.523 20.7597 28.5019 20.7876 28.4808 20.8155C28.4709 20.8287 28.4607 20.8418 28.4509 20.8552C28.4287 20.8857 28.4075 20.9166 28.3865 20.9477C28.3793 20.9583 28.3721 20.969 28.365 20.9797C28.3429 21.0134 28.3217 21.0476 28.3011 21.0821C28.2965 21.0897 28.2919 21.0974 28.2875 21.105C28.2654 21.1427 28.2442 21.1806 28.224 21.219C28.2222 21.2224 28.2204 21.2259 28.2186 21.2293C28.0374 21.5752 27.9292 21.9477 27.8928 22.3255C27.8925 22.3274 27.8923 22.3293 27.8921 22.3312C27.892 22.3321 27.892 22.333 27.8918 22.334C27.888 22.3756 27.885 22.4172 27.8829 22.4589C27.8825 22.4685 27.8819 22.4781 27.8815 22.4877C27.88 22.5245 27.8791 22.5613 27.879 22.5981C27.8788 22.6132 27.879 22.6282 27.8791 22.6434C27.8794 22.6759 27.88 22.7085 27.8814 22.741C27.8822 22.7611 27.8835 22.7814 27.8847 22.8016C27.8865 22.8297 27.8882 22.8578 27.8908 22.8858C27.8931 22.9119 27.8962 22.9381 27.8992 22.9641C27.9018 22.9867 27.9043 23.0093 27.9073 23.0318C27.9122 23.0671 27.9181 23.1023 27.9243 23.1374C27.9266 23.1511 27.9286 23.1648 27.9312 23.1784C27.942 23.2356 27.9547 23.2926 27.9687 23.3493C27.9925 23.4443 28.0211 23.5384 28.0543 23.6312C28.055 23.6332 28.0558 23.6351 28.0565 23.6371C28.0733 23.6836 28.0912 23.7298 28.1104 23.7756C28.1133 23.7826 28.1165 23.7894 28.1194 23.7965C28.1368 23.837 28.1548 23.8773 28.174 23.9172C28.1787 23.9269 28.1836 23.9365 28.1884 23.9462C28.2065 23.9828 28.2252 24.0191 28.2449 24.0552C28.2514 24.0671 28.2579 24.0787 28.2645 24.0904C28.2832 24.1237 28.3027 24.1567 28.3229 24.1894C28.3311 24.2028 28.3394 24.2161 28.3478 24.2295C28.3673 24.2599 28.3873 24.2899 28.4079 24.3198C28.418 24.3344 28.428 24.349 28.4383 24.3634C28.4583 24.3913 28.4791 24.4189 28.5002 24.4462C28.512 24.4616 28.5237 24.4771 28.536 24.4923C28.5568 24.5181 28.5783 24.5434 28.6 24.5687C28.6135 24.5844 28.6266 24.6004 28.6404 24.6158C28.663 24.6412 28.6866 24.6658 28.7103 24.6905C28.724 24.7049 28.7373 24.7196 28.7514 24.7338C28.7534 24.7358 28.7553 24.7381 28.7573 24.7401C28.7895 24.7723 28.8224 24.8032 28.8557 24.8337C28.86 24.8377 28.864 24.8418 28.8684 24.8458C28.9084 24.882 28.9493 24.9168 28.9908 24.9504C29.0103 24.9662 29.0308 24.9813 29.0508 24.9968C29.0718 25.013 29.0927 25.0295 29.114 25.045C29.1217 25.0506 29.1289 25.0567 29.1366 25.0622C29.1467 25.0695 29.1576 25.0752 29.1678 25.0824C29.2277 25.1241 29.2882 25.164 29.3503 25.2008C29.3676 25.211 29.385 25.2203 29.4024 25.2301C29.4685 25.2675 29.5354 25.3028 29.6036 25.3348C29.6056 25.3357 29.6075 25.3368 29.6094 25.3377C30.7201 25.856 32.0827 25.6569 32.9995 24.7401L33.6361 24.1035L34.0359 23.7038C34.5114 24.0442 34.9779 24.3755 35.4354 24.6978L35.4087 24.7245L35.2101 24.923L34.7573 25.3756C34.7385 25.3944 34.7209 25.4142 34.7026 25.4335C34.6844 25.4526 34.6659 25.4714 34.6484 25.4909C34.6274 25.5142 34.6076 25.5381 34.5874 25.5619C34.5734 25.5785 34.5589 25.5949 34.5452 25.6118C34.524 25.6381 34.5037 25.6647 34.4836 25.6914C34.4726 25.706 34.4613 25.7204 34.4505 25.7352C34.4293 25.7644 34.4091 25.7939 34.3889 25.8236C34.3806 25.8359 34.3723 25.8481 34.3642 25.8605C34.3431 25.8927 34.3229 25.9253 34.3032 25.9581C34.2975 25.9677 34.2918 25.9773 34.2861 25.9869C34.2653 26.0227 34.2451 26.0586 34.2259 26.095C34.2229 26.1008 34.2198 26.1067 34.2168 26.1125C34.1958 26.1527 34.1757 26.1932 34.1568 26.234V26.2341C34.0136 26.5422 33.9263 26.8685 33.8938 27.199C33.8934 27.2026 33.8929 27.2061 33.8925 27.2098C33.8924 27.2115 33.8923 27.2134 33.8922 27.2152C33.8884 27.255 33.8857 27.2948 33.8836 27.3348C33.883 27.3461 33.8824 27.3572 33.882 27.3684C33.8804 27.4042 33.8796 27.4398 33.8794 27.4755C33.8793 27.4916 33.8794 27.5077 33.8795 27.5237C33.8798 27.5556 33.8804 27.5873 33.8817 27.6191C33.8825 27.6398 33.8838 27.6607 33.8851 27.6814C33.8869 27.7092 33.8886 27.7369 33.8911 27.7646C33.8934 27.7908 33.8965 27.8169 33.8995 27.843C33.9022 27.8658 33.9046 27.8885 33.9077 27.9111C33.9125 27.9458 33.9184 27.9804 33.9245 28.015C33.927 28.0293 33.9291 28.0437 33.9318 28.058C33.9607 28.2105 34.0016 28.3614 34.0543 28.5089C34.056 28.5137 34.058 28.5183 34.0597 28.5231C34.0756 28.5667 34.0923 28.6099 34.1102 28.6528C34.1142 28.6623 34.1184 28.6716 34.1225 28.681C34.1388 28.7189 34.1557 28.7565 34.1735 28.7939C34.1793 28.806 34.1854 28.8179 34.1913 28.8299C34.2082 28.864 34.2258 28.8978 34.2441 28.9315C34.2517 28.9454 34.2594 28.9592 34.2673 28.973C34.2848 29.004 34.303 29.0348 34.3218 29.0654C34.3311 29.0807 34.3406 29.0959 34.3502 29.111C34.3684 29.1395 34.3873 29.1676 34.4065 29.1955C34.4177 29.2118 34.4289 29.2281 34.4403 29.2441C34.4592 29.2705 34.4789 29.2964 34.4987 29.3223C34.5115 29.3389 34.5241 29.3557 34.5374 29.3722C34.5574 29.3973 34.5784 29.4218 34.5994 29.4463C34.6133 29.4624 34.6268 29.4788 34.6411 29.4949C34.6643 29.5208 34.6886 29.5462 34.7128 29.5715C34.7257 29.585 34.7381 29.5988 34.7514 29.6121C34.7535 29.6142 34.7555 29.6165 34.7576 29.6187C34.8334 29.6945 34.9125 29.7653 34.9939 29.8312C35.006 29.841 35.0187 29.8502 35.031 29.8599C35.06 29.8827 35.0892 29.9054 35.1189 29.927C35.1252 29.9315 35.131 29.9365 35.1374 29.941C35.1457 29.947 35.1546 29.9518 35.163 29.9577C35.225 30.001 35.2878 30.0425 35.3523 30.0806C35.3692 30.0906 35.3864 30.0997 35.4035 30.1093C35.467 30.1453 35.5315 30.179 35.5969 30.21C35.6019 30.2123 35.6067 30.215 35.6117 30.2174C36.722 30.7345 38.0834 30.5351 38.9998 29.6187L39.0598 29.5588C39.0651 29.5536 39.0709 29.5492 39.076 29.5439L40.4771 28.1421L40.5014 28.1178C40.9653 28.4139 41.4059 28.6883 41.8273 28.9447L38.1449 32.1666C37.4492 32.7755 36.4222 32.8146 35.6835 32.2603C34.0759 31.0545 31.872 31.2113 30.4803 32.603L25.5862 37.4971H15.4148L23.1569 29.7542ZM48.4151 31.5747C48.5813 31.601 48.7693 31.6302 49.1287 31.6861C49.4215 31.7318 49.6395 31.7662 49.8546 31.8013C50.4078 31.8914 50.8739 31.9743 51.3172 32.0635C55.4571 32.8967 57.5896 34.3678 57.946 37.497H28.414L31.8939 34.0171C32.582 33.329 33.6721 33.2516 34.4511 33.8353C35.9777 34.9816 38.0547 34.9027 39.4614 33.6714L43.6545 30.0027C44.8851 30.6709 45.8609 31.0919 46.5784 31.2466C47.0794 31.3548 47.6113 31.4481 48.4151 31.5747ZM39.7068 24.6686C40.0973 25.059 40.0973 25.6929 39.7068 26.0834L39.6643 26.1259C39.6621 26.1281 39.6596 26.13 39.6574 26.1322L39.3574 26.4325L37.6408 28.1482C37.3066 28.4669 36.8327 28.5601 36.4708 28.4093C36.4546 28.402 36.4383 28.3949 36.4223 28.3868C36.418 28.3847 36.4137 28.3825 36.4093 28.3802C36.3617 28.3549 36.316 28.3247 36.2722 28.2912C36.2577 28.2798 36.243 28.2685 36.2292 28.2566C36.219 28.2479 36.2092 28.2387 36.1993 28.2295C36.1799 28.2114 36.1611 28.1927 36.1434 28.1734C36.1379 28.1674 36.1323 28.1613 36.1269 28.1551C36.1064 28.1317 36.0871 28.1075 36.0691 28.0827C36.0667 28.0793 36.0641 28.076 36.0617 28.0726C36.0418 28.0444 36.0234 28.0154 36.0068 27.9858C36.0063 27.985 36.0057 27.984 36.0053 27.9832C35.9525 27.8887 35.9161 27.7877 35.896 27.6843C35.8951 27.6791 35.8946 27.6738 35.8938 27.6686C35.889 27.6416 35.8851 27.6145 35.8827 27.5875C35.8809 27.568 35.8806 27.5486 35.8799 27.5291C35.8794 27.5163 35.8786 27.5034 35.8787 27.4907C35.8788 27.4673 35.8802 27.4439 35.8821 27.4207C35.8828 27.4119 35.8832 27.403 35.8841 27.3942C35.8867 27.3693 35.8904 27.3443 35.8949 27.3196C35.8962 27.3124 35.8973 27.3054 35.8987 27.2982C35.9039 27.2728 35.9101 27.2476 35.9173 27.2225C35.9191 27.216 35.921 27.2095 35.923 27.203C35.9306 27.178 35.9393 27.1533 35.9489 27.1288C35.9515 27.1221 35.9544 27.1157 35.9572 27.1091C35.9673 27.0852 35.9781 27.0615 35.9901 27.0382C35.9938 27.0312 35.9979 27.0243 36.0017 27.0173C36.014 26.9948 36.0268 26.9726 36.041 26.9509C36.0458 26.9435 36.0513 26.9365 36.0564 26.9293C36.0709 26.9082 36.0857 26.8873 36.1021 26.8672C36.1057 26.8629 36.1098 26.8588 36.1135 26.8545C36.1319 26.8327 36.1507 26.8111 36.1712 26.7906L36.7076 26.254L37.6936 25.2686C37.697 25.2652 37.6997 25.2614 37.7031 25.258L38.2923 24.6685C38.6826 24.2781 39.3164 24.2781 39.7068 24.6686ZM33.7069 19.79C34.0973 20.1804 34.0973 20.8143 33.7069 21.2048L33.2315 21.68C33.2285 21.6828 33.2255 21.6852 33.2227 21.6881L31.6607 23.25C31.3261 23.5851 30.8401 23.6844 30.4707 23.5308C30.4538 23.5233 30.4369 23.516 30.4205 23.5075C30.4171 23.5059 30.4137 23.5041 30.4103 23.5023C30.3609 23.4761 30.3134 23.4447 30.2679 23.4095C30.2559 23.3999 30.2435 23.3905 30.2319 23.3806C30.2198 23.3701 30.2079 23.3593 30.1961 23.3482C30.1787 23.3318 30.1619 23.3151 30.1459 23.2977C30.1388 23.29 30.1316 23.2823 30.1248 23.2743C30.106 23.2525 30.0882 23.2302 30.0714 23.2073C30.0678 23.2022 30.0639 23.1973 30.0604 23.1923C30.0418 23.1657 30.0245 23.1385 30.0088 23.1107C30.0074 23.1081 30.0058 23.1058 30.0044 23.1032C29.9523 23.0094 29.9161 22.9093 29.8963 22.8065C29.8943 22.7959 29.8934 22.7854 29.8918 22.7748C29.8882 22.7533 29.8848 22.7317 29.8828 22.7099C29.8809 22.688 29.8803 22.6661 29.8797 22.6442C29.8793 22.6339 29.8787 22.6236 29.8787 22.6132C29.8789 22.5882 29.8803 22.5631 29.8824 22.5381C29.883 22.5311 29.8833 22.5239 29.884 22.5169C29.8867 22.4904 29.8906 22.4642 29.8954 22.4379C29.8964 22.4324 29.8974 22.4268 29.8984 22.4213C29.9038 22.3945 29.9104 22.3677 29.918 22.3414C29.9194 22.3366 29.9208 22.3318 29.9223 22.3268C29.9304 22.3002 29.9396 22.2738 29.95 22.2477C29.9519 22.2432 29.9537 22.2387 29.9557 22.2341C29.9665 22.2081 29.9784 22.1823 29.9915 22.1571C29.9937 22.1529 29.9962 22.1488 29.9985 22.1446C30.0122 22.1193 30.0266 22.0942 30.0427 22.0698C30.0446 22.067 30.0467 22.0645 30.0485 22.0616C30.0841 22.0088 30.125 21.9584 30.1717 21.9116L32.2929 19.7895C32.6827 19.3995 33.3164 19.3995 33.7069 19.79ZM7.66814 21.2372C8.12681 21.8849 8.79817 22.6572 9.69218 23.4272C12.8098 26.1124 16.8208 27.1008 21.6316 25.4704C22.486 26.1983 22.5596 27.5231 21.7428 28.34L12.5856 37.497H7.93485C7.97692 37.1663 7.99954 36.8329 7.99954 36.4975C7.99954 33.8731 6.72162 31.4736 4.64285 29.9908C4.67918 29.8328 4.71515 29.6741 4.75195 29.5178C5.78917 25.109 7.00228 21.9654 7.66814 21.2372ZM55.5918 41.8209C55.0129 42.0793 54.3821 42.2639 53.7499 42.3843C53.3723 42.4561 53.0852 42.4897 52.9372 42.499L9.13977 42.497C6.04463 42.497 3.96387 42.139 2.71923 41.57C2.46974 41.456 2.27744 41.3438 2.13388 41.2384L2.73165 39.4975H6.70662C6.7099 39.4975 6.71307 39.4971 6.71635 39.4971H57.8708C57.5774 40.5377 56.7905 41.286 55.5918 41.8209Z" fill="#00B94B"/>
</g>
<defs>
<clipPath id="clip0_191_99">
<rect width="60" height="60" fill="white" transform="translate(0.181641)"/>
</clipPath>
</defs>
</svg>
