<svg width="61" height="60" viewBox="0 0 61 60" fill="none" xmlns="http://www.w3.org/2000/svg">
<g clip-path="url(#clip0_191_80)">
<path d="M59.8898 19.4054C59.6023 18.7678 52.6642 3.7417 38.7507 3.7417C38.1881 3.7417 37.6881 4.11673 37.5506 4.66673C37.4756 4.92925 35.6629 11.2423 30 11.2423C24.337 11.2423 22.5244 4.92925 22.4494 4.66673C22.2994 4.11673 21.8118 3.7417 21.2493 3.7417C7.33583 3.7417 0.397804 18.7678 0.110204 19.4054C-0.114813 19.9054 0.0102353 20.5055 0.43519 20.868L9.18589 28.4435C9.71093 28.8936 10.4985 28.8435 10.9485 28.3185C10.9735 28.2935 10.986 28.2685 10.9986 28.256L12.4987 26.2558V55.008C12.4987 55.6956 13.0612 56.2581 13.7488 56.2581H46.2513C46.9389 56.2581 47.5014 55.6956 47.5014 55.008V26.2433L49.0015 28.2435C49.414 28.7935 50.2016 28.906 50.7516 28.4935C50.7766 28.4809 50.8016 28.456 50.8141 28.4434L59.5648 20.8678C59.9898 20.5055 60.1148 19.918 59.8898 19.4054ZM50.2016 25.6683L47.2514 21.7431C46.8014 21.143 45.9263 21.068 45.3637 21.6056C45.1138 21.8432 45.0012 22.1807 45.0012 22.5306V53.7455H14.999V22.5181C14.999 21.9931 14.6864 21.493 14.1864 21.318C13.6489 21.1179 13.0739 21.318 12.7488 21.7431L9.79848 25.6683L2.79799 19.6178C4.37311 16.6676 10.3486 6.82936 20.3493 6.26681C21.4869 9.27958 24.5371 13.7424 30.0001 13.7424C35.4631 13.7424 38.5132 9.27958 39.6509 6.26681C49.6516 6.82936 55.6271 16.6801 57.2022 19.6178L50.2016 25.6683Z" fill="#00B94B"/>
</g>
<defs>
<clipPath id="clip0_191_80">
<rect width="60" height="60" fill="white" transform="translate(0.45459)"/>
</clipPath>
</defs>
</svg>
