<svg width="122" height="122" viewBox="0 0 122 122" fill="none" xmlns="http://www.w3.org/2000/svg">
<path d="M105.474 61L111.086 51.301C111.761 50.1341 111.944 48.747 111.596 47.4449C111.248 46.1428 110.397 45.0321 109.231 44.3571L99.5216 38.7451V27.5618C99.5216 26.2136 98.986 24.9207 98.0327 23.9674C97.0794 23.014 95.7865 22.4785 94.4383 22.4785H83.26L77.6531 12.7744C76.9759 11.6099 75.8674 10.7589 74.5675 10.4056C73.9228 10.2308 73.2497 10.1857 72.5874 10.273C71.9251 10.3602 71.2868 10.5781 70.7093 10.9139L61.0001 16.5259L51.2909 10.9088C50.1234 10.2347 48.7359 10.0521 47.4337 10.401C46.1315 10.7499 45.0212 11.6018 44.3471 12.7693L38.7351 22.4785H27.5569C26.2087 22.4785 24.9157 23.014 23.9624 23.9674C23.0091 24.9207 22.4735 26.2136 22.4735 27.5618V38.7401L12.7644 44.3521C12.185 44.6853 11.6772 45.1297 11.2702 45.6598C10.8631 46.1899 10.5648 46.7952 10.3924 47.4409C10.22 48.0866 10.1769 48.76 10.2655 49.4225C10.3542 50.0849 10.5728 50.7233 10.9089 51.301L16.5209 61L10.9089 70.699C10.2379 71.867 10.0558 73.2529 10.4024 74.5547C10.749 75.8564 11.5962 76.9683 12.7593 77.6479L22.4684 83.2599V94.4381C22.4684 95.7863 23.004 97.0793 23.9573 98.0326C24.9106 98.9859 26.2036 99.5215 27.5518 99.5215H38.7351L44.3471 109.231C44.7971 110 45.4397 110.639 46.2116 111.085C46.9834 111.53 47.858 111.767 48.7493 111.772C49.6338 111.772 50.5132 111.538 51.296 111.086L60.995 105.474L70.7042 111.086C71.8714 111.759 73.258 111.942 74.5597 111.594C75.8615 111.246 76.9721 110.396 77.648 109.231L83.2549 99.5215H94.4332C95.7814 99.5215 97.0743 98.9859 98.0277 98.0326C98.981 97.0793 99.5165 95.7863 99.5165 94.4381V83.2599L109.226 77.6479C109.804 77.3137 110.311 76.8688 110.717 76.3386C111.123 75.8084 111.421 75.2033 111.594 74.558C111.766 73.9126 111.809 73.2396 111.721 72.5775C111.633 71.9153 111.416 71.277 111.081 70.699L105.474 61ZM48.2867 35.5325C50.3096 35.5332 52.2495 36.3374 53.6794 37.7683C55.1094 39.1992 55.9124 41.1396 55.9117 43.1626C55.911 45.1855 55.1068 47.1253 53.6758 48.5553C52.2449 49.9853 50.3046 50.7882 48.2816 50.7876C46.2587 50.7869 44.3188 49.9826 42.8889 48.5517C41.4589 47.1208 40.6559 45.1804 40.6566 43.1575C40.6573 41.1345 41.4615 39.1947 42.8925 37.7647C44.3234 36.3348 46.2637 35.5318 48.2867 35.5325ZM49.8117 84.3325L41.6784 78.2376L72.1784 37.5709L80.3117 43.6658L49.8117 84.3325ZM73.7034 86.3658C72.7017 86.3655 71.7099 86.1679 70.7846 85.7842C69.8593 85.4006 69.0187 84.8385 68.3106 84.13C67.6026 83.4214 67.041 82.5804 66.658 81.6549C66.275 80.7293 66.078 79.7374 66.0784 78.7357C66.0787 77.7341 66.2763 76.7423 66.6599 75.817C67.0436 74.8917 67.6057 74.051 68.3142 73.343C69.0227 72.6349 69.8638 72.0734 70.7893 71.6904C71.7149 71.3074 72.7068 71.1104 73.7084 71.1107C75.7314 71.1114 77.6712 71.9157 79.1012 73.3466C80.5311 74.7775 81.3341 76.7179 81.3334 78.7408C81.3328 80.7638 80.5285 82.7036 79.0976 84.1336C77.6667 85.5635 75.7263 86.3665 73.7034 86.3658Z" fill="#00B94B"/>
</svg>
