<svg width="122" height="122" viewBox="0 0 122 122" fill="none" xmlns="http://www.w3.org/2000/svg">
<path d="M4.93649 38.6348H117.063V33.8855C117.063 23.3696 111.704 18.0582 101.031 18.0582H20.9686C10.298 18.0582 4.93431 23.3696 4.93431 33.8877L4.93649 38.6348ZM4.93649 88.1647C4.93649 98.6828 10.2958 103.942 20.9686 103.942H101.031C111.702 103.942 117.065 98.6828 117.065 88.1647V50.227H4.93213L4.93649 88.1647ZM21.9903 75.7054V66.2591C21.9903 63.4008 23.9816 61.3573 26.9945 61.3573H39.5039C42.5168 61.3573 44.5081 63.4008 44.5081 66.2591V75.7054C44.5081 78.616 42.5168 80.6072 39.5039 80.6072H26.9923C23.9794 80.6072 21.9903 78.616 21.9903 75.7054Z" fill="#00B94B"/>
</svg>
