<svg width="122" height="122" viewBox="0 0 122 122" fill="none" xmlns="http://www.w3.org/2000/svg">
<path fill-rule="evenodd" clip-rule="evenodd" d="M5.08325 15.25C5.08325 13.9018 5.61882 12.6088 6.57213 11.6555C7.52544 10.7022 8.8184 10.1666 10.1666 10.1666H66.0833C67.4314 10.1666 68.7244 10.7022 69.6777 11.6555C70.631 12.6088 71.1666 13.9018 71.1666 15.25V40.6666H91.4999C94.8377 40.6666 98.1428 41.324 101.226 42.6013C104.31 43.8787 107.112 45.7508 109.472 48.111C111.832 50.4711 113.705 53.2731 114.982 56.3568C116.259 59.4404 116.917 62.7455 116.917 66.0833V86.4166C116.917 89.689 115.865 92.8748 113.917 95.5037C111.968 98.1326 109.225 100.065 106.094 101.016C105.162 104.091 103.282 106.794 100.722 108.737C98.1631 110.681 95.0552 111.766 91.8424 111.838C88.6296 111.91 85.4761 110.965 82.832 109.139C80.188 107.312 78.1886 104.697 77.1192 101.667H44.8858C43.8163 104.697 41.8169 107.312 39.1729 109.139C36.5288 110.965 33.3754 111.91 30.1625 111.838C26.9497 111.766 23.8418 110.681 21.2824 108.737C18.7231 106.794 16.8431 104.091 15.9108 101.016C12.7786 100.066 10.035 98.1339 8.0853 95.5049C6.13556 92.876 5.08306 89.6897 5.08325 86.4166V66.0833H35.5833C36.9314 66.0833 38.2244 65.5477 39.1777 64.5944C40.131 63.6411 40.6666 62.3481 40.6666 61C40.6666 59.6518 40.131 58.3588 39.1777 57.4055C38.2244 56.4522 36.9314 55.9166 35.5833 55.9166H5.08325V45.75H25.4166C26.7648 45.75 28.0577 45.2144 29.011 44.2611C29.9644 43.3078 30.4999 42.0148 30.4999 40.6666C30.4999 39.3184 29.9644 38.0255 29.011 37.0722C28.0577 36.1189 26.7648 35.5833 25.4166 35.5833H5.08325V15.25ZM71.1666 91.5H77.1192C78.1241 88.6556 79.9501 86.1731 82.3661 84.3667C84.7821 82.5602 87.6796 81.5109 90.6921 81.3514C93.7046 81.192 96.6967 81.9296 99.2899 83.4709C101.883 85.0123 103.961 87.2881 105.261 90.0105C105.733 89.5391 106.108 88.9789 106.364 88.3622C106.619 87.7454 106.751 87.0842 106.75 86.4166V66.0833C106.75 62.0387 105.143 58.1598 102.283 55.2999C99.4234 52.44 95.5445 50.8333 91.4999 50.8333H71.1666V91.5ZM35.5833 96.5833C35.5833 95.2351 35.0477 93.9421 34.0944 92.9888C33.1411 92.0355 31.8481 91.5 30.4999 91.5C29.1517 91.5 27.8588 92.0355 26.9055 92.9888C25.9522 93.9421 25.4166 95.2351 25.4166 96.5833C25.4166 97.9315 25.9522 99.2244 26.9055 100.178C27.8588 101.131 29.1517 101.667 30.4999 101.667C31.8481 101.667 33.1411 101.131 34.0944 100.178C35.0477 99.2244 35.5833 97.9315 35.5833 96.5833ZM87.906 92.9894C87.4326 93.4603 87.0572 94.0204 86.8016 94.6372C86.5459 95.2541 86.4151 95.9155 86.4166 96.5833C86.4163 97.7594 86.8239 98.8991 87.5698 99.8084C88.3157 100.718 89.3538 101.34 90.5072 101.57C91.6607 101.8 92.858 101.622 93.8953 101.068C94.9326 100.514 95.7457 99.617 96.196 98.5305C96.6462 97.4441 96.7058 96.2351 96.3646 95.1096C96.0234 93.9841 95.3025 93.0118 94.3248 92.3582C93.347 91.7047 92.1729 91.4103 91.0025 91.5254C89.832 91.6405 88.7377 92.1579 87.906 92.9894Z" fill="#00B94B"/>
</svg>
