<svg width="122" height="122" viewBox="0 0 122 122" fill="none" xmlns="http://www.w3.org/2000/svg">
<path d="M59.7292 96.5833H58.4583C46.4278 96.5833 36.2188 92.3895 27.8313 84.002C19.4437 75.6145 15.25 65.4055 15.25 53.375C15.25 41.3444 19.4437 31.1354 27.8313 22.7479C36.2188 14.3604 46.4278 10.1666 58.4583 10.1666C64.4736 10.1666 70.0873 11.2883 75.2994 13.5318C80.5115 15.7752 85.0865 18.8676 89.0244 22.8089C92.9623 26.7502 96.053 31.3252 98.2964 36.5339C100.54 41.7426 101.663 47.3563 101.667 53.375C101.667 64.7277 98.4676 75.2757 92.0693 85.0187C85.6711 94.7618 77.6022 102.387 67.8625 107.894C67.0153 108.317 66.1681 108.551 65.3208 108.595C64.4736 108.639 63.7111 108.448 63.0333 108.021C62.3556 107.597 61.7625 107.046 61.2542 106.369C60.7458 105.691 60.4493 104.886 60.3646 103.954L59.7292 96.5833ZM58.3313 81.2062C59.7715 81.2062 61 80.6979 62.0167 79.6812C63.0333 78.6645 63.5417 77.4361 63.5417 75.9958C63.5417 74.5555 63.0333 73.327 62.0167 72.3104C61 71.2937 59.7715 70.7854 58.3313 70.7854C56.891 70.7854 55.6625 71.2937 54.6458 72.3104C53.6292 73.327 53.1208 74.5555 53.1208 75.9958C53.1208 77.4361 53.6292 78.6645 54.6458 79.6812C55.6625 80.6979 56.891 81.2062 58.3313 81.2062ZM47.275 42.5729C48.2069 42.9965 49.1389 43.0185 50.0708 42.639C51.0028 42.2594 51.7653 41.6443 52.3583 40.7937C53.1208 39.777 54.0104 38.9925 55.0271 38.4401C56.0438 37.8877 57.1875 37.6132 58.4583 37.6166C60.4917 37.6166 62.1438 38.1877 63.4146 39.3297C64.6854 40.4718 65.3208 41.9341 65.3208 43.7166C65.3208 44.818 65.004 45.9194 64.3703 47.0208C63.7365 48.1222 62.6131 49.4777 61 51.0875C58.8819 52.9513 57.3146 54.7102 56.2979 56.364C55.2812 58.0177 54.7729 59.6902 54.7729 61.3812C54.7729 62.3979 55.1338 63.2671 55.8557 63.989C56.5775 64.7108 57.4451 65.07 58.4583 65.0666C59.475 65.0666 60.3222 64.6854 61 63.9229C61.6778 63.1604 62.1861 62.2708 62.525 61.2541C62.9486 59.8138 63.7111 58.5006 64.8125 57.3145C65.9139 56.1284 66.9306 55.0694 67.8625 54.1375C69.6417 52.3583 70.9769 50.5791 71.8682 48.8C72.7594 47.0208 73.2034 45.2416 73.2 43.4625C73.2 39.5652 71.8648 36.4305 69.1943 34.0583C66.5239 31.6861 62.9452 30.5 58.4583 30.5C55.7472 30.5 53.2479 31.1574 50.9604 32.4723C48.6729 33.7872 46.809 35.5867 45.3688 37.8708C44.8604 38.8027 44.796 39.7143 45.1756 40.6056C45.5551 41.4969 46.2549 42.1527 47.275 42.5729Z" fill="#00B94B"/>
</svg>
