<svg width="122" height="122" viewBox="0 0 122 122" fill="none" xmlns="http://www.w3.org/2000/svg">
<path d="M48.617 44.3775L51.2349 53.8478C53.7003 62.769 54.9305 67.2322 58.5549 69.2604C62.1793 71.2938 66.7798 70.0941 75.9806 67.7049L85.7406 65.1633C94.9414 62.7741 99.5418 61.5795 101.636 58.0669C103.731 54.5493 102.5 50.0861 100.03 41.1649L97.417 31.6997C94.9516 22.7734 93.7163 18.3102 90.097 16.2819C86.4675 14.2486 81.8671 15.4483 72.6663 17.8425L62.9063 20.374C53.7054 22.7632 49.105 23.9629 47.0158 27.4805C44.9214 30.9931 46.1516 35.4563 48.617 44.3775Z" fill="#00B94B"/>
<path d="M11.5747 26.6723C11.7087 26.1895 11.9364 25.7378 12.245 25.3431C12.5536 24.9484 12.937 24.6184 13.3732 24.372C13.8095 24.1255 14.29 23.9675 14.7873 23.9069C15.2847 23.8463 15.7891 23.8843 16.2717 24.0188L24.9286 26.4181C27.223 27.0412 29.3167 28.2481 31.0058 29.9212C32.6949 31.5942 33.9217 33.6764 34.5666 35.9646L45.5009 75.5434L46.3041 78.324C49.546 79.5189 52.2779 81.7931 54.0409 84.7646L55.6167 84.2766L100.706 72.5595C101.191 72.4334 101.695 72.4039 102.191 72.4728C102.687 72.5417 103.165 72.7076 103.597 72.9611C104.029 73.2146 104.407 73.5507 104.709 73.9501C105.011 74.3496 105.231 74.8046 105.357 75.2893C105.483 75.7739 105.513 76.2787 105.444 76.7747C105.375 77.2707 105.209 77.7483 104.956 78.1803C104.702 78.6122 104.366 78.9899 103.967 79.2919C103.567 79.594 103.112 79.8144 102.627 79.9405L57.706 91.6119L56.0285 92.1304C55.998 98.5862 51.5399 104.493 44.7943 106.242C36.7118 108.346 28.4006 103.69 26.2351 95.8514C24.0696 88.0078 28.8682 79.9456 36.9507 77.8462C37.349 77.7436 37.7508 77.6554 38.1555 77.5819L27.2161 37.9929C26.9217 36.9758 26.369 36.0522 25.6118 35.3119C24.8547 34.5717 23.9188 34.04 22.8953 33.7686L14.2333 31.3642C13.7506 31.2308 13.2989 31.0036 12.9041 30.6955C12.5092 30.3875 12.1789 30.0047 11.932 29.569C11.6851 29.1333 11.5265 28.6532 11.4652 28.1562C11.4039 27.6592 11.4411 27.1549 11.5747 26.6723Z" fill="#00B94B"/>
<circle cx="41" cy="92" r="7" fill="white"/>
<path d="M66 29L76.6707 26" stroke="white" stroke-width="6" stroke-linecap="round"/>
</svg>
