<svg width="80" height="80" viewBox="0 0 80 80" fill="none" xmlns="http://www.w3.org/2000/svg">
<path d="M34.615 6.99994C38.0812 5.66669 41.9188 5.66669 45.385 6.99994L70.195 16.5399C71.6094 17.0846 72.8257 18.045 73.6834 19.2945C74.5412 20.5441 75.0002 22.0243 75 23.5399V56.6699C75.0002 58.1856 74.5412 59.6657 73.6834 60.9153C72.8257 62.1649 71.6094 63.1253 70.195 63.6699L45.385 73.2149C41.9188 74.5482 38.0812 74.5482 34.615 73.2149L9.81 63.6699C8.39464 63.1261 7.17735 62.1661 6.31866 60.9164C5.45996 59.6668 5.0002 58.1862 5 56.6699V23.5399C5.0002 22.0237 5.45996 20.5431 6.31866 19.2935C7.17735 18.0438 8.39464 17.0838 9.81 16.5399L34.615 6.99994ZM43.59 11.6649C41.2792 10.7761 38.7208 10.7761 36.41 11.6649L29.49 14.3299L57.44 24.9099L67.18 20.7399L43.59 11.6649ZM70 24.9649L42.5 36.7599V68.8999C42.87 68.8049 43.23 68.6899 43.59 68.5499L68.4 59.0099C68.8714 58.828 69.2767 58.5075 69.5623 58.0907C69.8479 57.6739 70.0005 57.1802 70 56.6749V24.9649ZM37.5 68.8949V36.7599L10 24.9699V56.6699C9.99947 57.1752 10.1521 57.6689 10.4377 58.0857C10.7233 58.5025 11.1286 58.823 11.6 59.0049L36.41 68.5449C36.77 68.6849 37.13 68.7999 37.5 68.8949ZM12.82 20.7399L40 32.3899L50.82 27.7499L22.485 17.0199L12.82 20.7399Z" fill="#00B94B"/>
</svg>
