<svg width="80" height="80" viewBox="0 0 80 80" fill="none" xmlns="http://www.w3.org/2000/svg">
<g clip-path="url(#clip0_283_93)">
<path d="M56.6665 11.3333H23.3332C19.6513 11.3333 16.6665 14.318 16.6665 17.9999V61.3333C16.6665 65.0151 19.6513 67.9999 23.3332 67.9999H56.6665C60.3484 67.9999 63.3332 65.0151 63.3332 61.3333V17.9999C63.3332 14.318 60.3484 11.3333 56.6665 11.3333Z" stroke="#00B94B" stroke-width="4"/>
<path d="M30 30H50M30 43.3333H50M30 56.6667H43.3333" stroke="#00B94B" stroke-width="4" stroke-linecap="round"/>
<g clip-path="url(#clip1_283_93)">
<path d="M68.3921 76.4117L54.8038 62.8234C53.7254 63.6862 52.4852 64.3692 51.0832 64.8724C49.6813 65.3757 48.1894 65.6273 46.6077 65.6273C42.6894 65.6273 39.3736 64.27 36.6603 61.5552C33.947 58.8404 32.5896 55.5246 32.5881 51.6077C32.5881 47.6894 33.9455 44.3736 36.6603 41.6603C39.3751 38.947 42.6909 37.5896 46.6077 37.5881C50.526 37.5881 53.8426 38.9455 56.5573 41.6603C59.2721 44.3751 60.6288 47.6909 60.6273 51.6077C60.6273 53.1894 60.3757 54.6813 59.8724 56.0832C59.3692 57.4852 58.6862 58.7254 57.8234 59.8038L71.4117 73.3921L68.3921 76.4117ZM46.6077 61.3136C49.3038 61.3136 51.5958 60.3704 53.4838 58.4838C55.3718 56.5973 56.3151 54.3053 56.3136 51.6077C56.3136 48.9117 55.3704 46.6204 53.4838 44.7338C51.5973 42.8473 49.3053 41.9033 46.6077 41.9019C43.9117 41.9019 41.6204 42.8458 39.7338 44.7338C37.8473 46.6218 36.9033 48.9131 36.9019 51.6077C36.9019 54.3038 37.8458 56.5958 39.7338 58.4838C41.6218 60.3718 43.9131 61.3151 46.6077 61.3136Z" fill="#00B94B"/>
<path d="M46.6077 61.3136C49.3038 61.3136 51.5958 60.3704 53.4838 58.4838C55.3718 56.5973 56.3151 54.3053 56.3136 51.6077C56.3136 48.9117 55.3704 46.6204 53.4838 44.7338C51.5973 42.8473 49.3053 41.9033 46.6077 41.9019C43.9117 41.9019 41.6204 42.8458 39.7338 44.7338C37.8473 46.6218 36.9033 48.9131 36.9019 51.6077C36.9019 54.3038 37.8458 56.5958 39.7338 58.4838C41.6218 60.3718 43.9131 61.3151 46.6077 61.3136Z" fill="white"/>
</g>
</g>
<defs>
<clipPath id="clip0_283_93">
<rect width="80" height="80" fill="white"/>
</clipPath>
<clipPath id="clip1_283_93">
<rect width="40" height="40" fill="white" transform="translate(32 37)"/>
</clipPath>
</defs>
</svg>
