<svg width="80" height="80" viewBox="0 0 80 80" fill="none" xmlns="http://www.w3.org/2000/svg">
<g clip-path="url(#clip0_283_140)">
<path d="M40 18C37.2311 18 34.5243 18.8211 32.222 20.3594C29.9197 21.8978 28.1253 24.0843 27.0657 26.6424C26.0061 29.2006 25.7288 32.0155 26.269 34.7313C26.8092 37.447 28.1426 39.9416 30.1005 41.8995C32.0584 43.8574 34.553 45.1908 37.2687 45.731C39.9845 46.2712 42.7994 45.9939 45.3576 44.9343C47.9157 43.8747 50.1022 42.0803 51.6406 39.778C53.1789 37.4757 54 34.7689 54 32C54 28.287 52.525 24.726 49.8995 22.1005C47.274 19.475 43.713 18 40 18ZM40 41.1134C38.1975 41.1134 36.4355 40.5789 34.9368 39.5775C33.4382 38.5761 32.2701 37.1528 31.5803 35.4876C30.8905 33.8223 30.71 31.9899 31.0617 30.2221C31.4133 28.4542 32.2813 26.8304 33.5558 25.5558C34.8304 24.2813 36.4542 23.4133 38.2221 23.0617C39.9899 22.71 41.8223 22.8905 43.4876 23.5803C45.1528 24.2701 46.5762 25.4381 47.5775 26.9368C48.5789 28.4355 49.1134 30.1975 49.1134 32C49.107 34.4128 48.144 36.7246 46.4356 38.4284C44.7272 40.1322 42.4128 41.089 40 41.089V41.1134Z" fill="#00B94B"/>
<path d="M40 4.44434C33.0783 4.45012 26.44 7.19475 21.5352 12.0788C16.6303 16.9628 13.8575 23.5893 13.8223 30.511C13.8223 40.8888 19.6445 49.5777 23.9112 55.911L24.6889 57.0666C28.934 63.2191 33.488 69.1526 38.3334 74.8443L40.0223 76.8221L41.7112 74.8443C46.5559 69.1521 51.1099 63.2186 55.3556 57.0666L56.1334 55.8888C60.3778 49.5555 66.2 40.8888 66.2 30.511C66.1648 23.5855 63.3889 16.9556 58.4793 12.0709C53.5696 7.18629 46.9257 4.44425 40 4.44434ZM52.4223 53.3332L51.6223 54.511C47.8 60.2443 42.7334 66.6666 40 69.8443C37.3778 66.6666 32.2 60.2443 28.3778 54.511L27.6 53.3332C23.6667 47.4666 18.2667 39.4443 18.2667 30.4221C18.2667 27.5681 18.8289 24.7419 19.9211 22.1051C21.0133 19.4683 22.6141 17.0725 24.6323 15.0543C26.6504 13.0362 29.0462 11.4353 31.6831 10.3431C34.3199 9.25093 37.146 8.68878 40 8.68878C42.8541 8.68878 45.6802 9.25093 48.317 10.3431C50.9538 11.4353 53.3497 13.0362 55.3678 15.0543C57.386 17.0725 58.9868 19.4683 60.079 22.1051C61.1712 24.7419 61.7334 27.5681 61.7334 30.4221C61.7334 39.5332 56.3556 47.5555 52.4223 53.3332Z" fill="#00B94B"/>
</g>
<defs>
<clipPath id="clip0_283_140">
<rect width="80" height="80" fill="white"/>
</clipPath>
</defs>
</svg>
