<svg width="80" height="80" viewBox="0 0 80 80" fill="none" xmlns="http://www.w3.org/2000/svg">
<path d="M52.5 50C51.837 50 51.2011 50.2634 50.7322 50.7322C50.2634 51.2011 50 51.837 50 52.5C50 53.163 50.2634 53.7989 50.7322 54.2678C51.2011 54.7366 51.837 55 52.5 55H62.5C63.163 55 63.7989 54.7366 64.2678 54.2678C64.7366 53.7989 65 53.163 65 52.5C65 51.837 64.7366 51.2011 64.2678 50.7322C63.7989 50.2634 63.163 50 62.5 50H52.5ZM5 27.5C5 24.1848 6.31696 21.0054 8.66117 18.6612C11.0054 16.317 14.1848 15 17.5 15H62.5C65.8152 15 68.9946 16.317 71.3388 18.6612C73.683 21.0054 75 24.1848 75 27.5V52.5C75 55.8152 73.683 58.9946 71.3388 61.3388C68.9946 63.683 65.8152 65 62.5 65H17.5C14.1848 65 11.0054 63.683 8.66117 61.3388C6.31696 58.9946 5 55.8152 5 52.5V27.5ZM70 30V27.5C70 25.5109 69.2098 23.6032 67.8033 22.1967C66.3968 20.7902 64.4891 20 62.5 20H17.5C15.5109 20 13.6032 20.7902 12.1967 22.1967C10.7902 23.6032 10 25.5109 10 27.5V30H70ZM10 35V52.5C10 54.4891 10.7902 56.3968 12.1967 57.8033C13.6032 59.2098 15.5109 60 17.5 60H62.5C64.4891 60 66.3968 59.2098 67.8033 57.8033C69.2098 56.3968 70 54.4891 70 52.5V35H10Z" fill="#00B94B"/>
</svg>
