<svg width="115" height="57" viewBox="0 0 115 57" fill="none" xmlns="http://www.w3.org/2000/svg">
<path fill-rule="evenodd" clip-rule="evenodd" d="M45.773 22.3043C45.773 39.1047 22.8865 57 22.8865 57C22.8865 57 0 39.5781 0 22.3043C0 9.986 10.2466 0 22.8865 0C35.5264 0 45.773 9.986 45.773 22.3043ZM23.17 40.336C32.8699 40.336 40.3104 31.9086 40.3104 22.7957C40.3104 13.6828 32.8718 5.39701 23.17 5.39701C13.4682 5.39701 5.59306 13.2094 5.59306 22.7957C5.59306 32.3821 13.4701 40.336 23.17 40.336Z" fill="#00B94B"/>
<path d="M23.7341 20.4016C23.7341 20.3189 23.7881 20.2459 23.8671 20.2216L33.8035 17.1655C33.9246 17.1282 34.0472 17.2188 34.0472 17.3455V28.8876C34.0472 28.9674 33.9969 29.0386 33.9216 29.0652L23.9853 32.5773C23.8627 32.6207 23.7341 32.5297 23.7341 32.3997V20.4016Z" fill="#C7F5D9"/>
<path fill-rule="evenodd" clip-rule="evenodd" d="M10.1718 16.1884C10.1718 16.0215 10.2816 15.8745 10.4417 15.8272L22.8735 12.1513C22.9434 12.1306 23.0179 12.1307 23.0878 12.1515L35.4262 15.8268C35.5859 15.8744 35.6954 16.0212 35.6954 16.1878V29.7489C35.6954 29.9084 35.595 30.0506 35.4446 30.1039L23.0129 34.5149C22.9312 34.544 22.8419 34.5438 22.7602 34.5146L10.4217 30.1043C10.2718 30.0507 10.1718 29.9087 10.1718 29.7495V16.1884ZM22.132 20.4007C22.1326 20.3184 22.0798 20.2453 22.0015 20.22L11.9721 16.9807C11.8504 16.9414 11.7258 17.0321 11.7258 17.1599L11.7258 28.8408C11.7258 28.9203 11.7758 28.9913 11.8507 29.0181L21.789 32.5767C21.9111 32.6204 22.0399 32.5305 22.0409 32.4007L22.132 20.4007ZM17.2938 17.1196C17.2559 17.1315 17.2152 17.1311 17.1776 17.1185L14.2119 16.1246C14.1858 16.1159 14.1864 16.0787 14.2128 16.0708L22.9253 13.4618C22.9614 13.451 22.9999 13.4512 23.0358 13.4625L25.9086 14.365C25.935 14.3733 25.935 14.4107 25.9086 14.419L17.2938 17.1196ZM23.0383 18.872C23.0008 18.8834 22.9607 18.8828 22.9236 18.8704L19.9578 17.8766C19.9316 17.8678 19.9323 17.8305 19.9588 17.8227L28.669 15.2609C28.706 15.25 28.7455 15.2508 28.782 15.263L31.6088 16.2103C31.6349 16.219 31.6344 16.2561 31.6081 16.2641L23.0383 18.872ZM34.0472 17.3455C34.0472 17.2188 33.9246 17.1282 33.8035 17.1655L23.8671 20.2216C23.7881 20.2459 23.7341 20.3189 23.7341 20.4016V32.3997C23.7341 32.5297 23.8627 32.6207 23.9853 32.5773L33.9216 29.0652C33.9969 29.0386 34.0472 28.9674 34.0472 28.8876V17.3455Z" fill="#00B94B"/>
<path d="M19.9588 17.8227C19.9323 17.8305 19.9316 17.8678 19.9578 17.8766L22.9236 18.8704C22.9607 18.8828 23.0008 18.8834 23.0383 18.872L31.6081 16.2641C31.6344 16.2561 31.6349 16.219 31.6088 16.2103L28.782 15.263C28.7455 15.2508 28.706 15.25 28.669 15.2609L19.9588 17.8227Z" fill="white"/>
<path d="M14.2128 16.0708C14.1864 16.0787 14.1858 16.1159 14.2119 16.1246L17.1776 17.1185C17.2152 17.1311 17.2559 17.1315 17.2938 17.1196L25.9086 14.419C25.935 14.4107 25.935 14.3733 25.9086 14.365L23.0358 13.4625C22.9999 13.4512 22.9614 13.451 22.9253 13.4618L14.2128 16.0708Z" fill="white"/>
<path d="M14.8809 21.097L18.554 22.3214" stroke="#00B94B" stroke-width="1.50693" stroke-linecap="round" stroke-linejoin="round"/>
<path fill-rule="evenodd" clip-rule="evenodd" d="M50.2937 48.9752L56.9807 7.91139H65.6455L72.3326 48.9752H65.9281L64.7979 40.8755H57.3574L56.2272 48.9752H50.2937ZM58.1109 35.4129L61.0777 14.9751L64.0444 35.4129H58.1109Z" fill="#00B94B"/>
<path d="M76.1941 7.91139H82.5985V43.1359H93.2412V48.9752H76.1941V7.91139Z" fill="#00B94B"/>
<path d="M95.7841 36.9198H101.812L101.906 40.4988C101.906 44.8783 108.593 44.6428 108.593 40.4988V38.5209C108.169 34.7536 105.673 32.4932 100.729 28.0666C96.7731 24.5253 95.8469 20.0296 95.8783 18.2244V16.6704C95.8783 9.0981 101.718 7.23642 104.637 7.25211H106.144C113.265 7.25211 114.95 13.531 114.903 16.6704V19.3076H108.781V15.917C107.887 11.5845 102.424 12.6206 102.33 16.1995C102.047 21.7563 106.097 24.2522 110.571 28.4433C114.15 31.7962 115.013 36.0565 114.998 37.7674V40.3104C114.998 44.5957 111.984 49.5403 106.144 49.5403H104.355C97.6866 49.5403 95.8626 43.5126 95.7841 40.4988V36.9198Z" fill="#00B94B"/>
</svg>
