<svg width="122" height="122" viewBox="0 0 122 122" fill="none" xmlns="http://www.w3.org/2000/svg">
<path d="M83.9715 83.88C84.8611 83.1887 85.6694 82.3804 87.2808 80.769L107.396 60.6492C107.884 60.1663 107.66 59.3275 107.014 59.0988C103.867 58.0018 101.009 56.2046 98.6573 53.8426C96.2953 51.4906 94.4981 48.6332 93.4011 45.4856C93.1724 44.84 92.3336 44.6164 91.8507 45.1044L71.7258 65.2191C70.1144 66.8305 69.3061 67.6388 68.6148 68.5284C67.7964 69.5806 67.0898 70.7142 66.5205 71.9139C66.0375 72.9305 65.6766 74.0184 64.9548 76.1839L64.0195 78.9797L62.5351 83.4276L61.1474 87.5959C60.9743 88.1184 60.9499 88.6786 61.0769 89.2142C61.2039 89.7497 61.4772 90.2393 61.8663 90.6285C62.2555 91.0177 62.7452 91.291 63.2807 91.4179C63.8162 91.5449 64.3764 91.5205 64.8989 91.3474L69.0672 89.9597L73.5151 88.4754L76.311 87.54C78.4765 86.8182 79.5643 86.4624 80.581 85.9744C81.7806 85.3999 82.9244 84.7035 83.9715 83.88ZM113.699 54.3509C115.761 52.2882 116.919 49.4908 116.919 46.5742C116.918 43.6575 115.759 40.8605 113.696 38.7985C111.634 36.7364 108.836 35.5783 105.92 35.5787C103.003 35.5792 100.206 36.7383 98.1439 38.801L97.5034 39.4517C97.1956 39.7551 96.9663 40.1288 96.8353 40.5406C96.7042 40.9525 96.6753 41.39 96.751 41.8154C96.8527 42.3594 97.0306 43.1625 97.361 44.1131C98.0219 46.0194 99.2724 48.5204 101.626 50.8739C103.527 52.79 105.839 54.2484 108.387 55.1389C109.342 55.4693 110.141 55.6472 110.684 55.7489C111.11 55.8242 111.547 55.7951 111.959 55.664C112.371 55.533 112.745 55.3039 113.048 54.9965L113.699 54.3509Z" fill="#00B94B"/>
<path fill-rule="evenodd" clip-rule="evenodd" d="M21.2077 16.1243C15.25 22.0769 15.25 31.664 15.25 50.8333V71.1666C15.25 90.3359 15.25 99.923 21.2077 105.876C27.1602 111.833 36.7474 111.833 55.9167 111.833H66.0833C85.2526 111.833 94.8397 111.833 100.792 105.876C106.653 100.02 106.75 90.646 106.75 72.0816L92.4252 86.4064C91.0527 87.779 89.9293 88.9024 88.6635 89.8936C87.1763 91.0528 85.5673 92.0465 83.8648 92.8572C82.304 93.5571 80.7014 94.1597 79.0662 94.6618L67.3135 98.581C65.4478 99.2032 63.4457 99.2935 61.5316 98.8418C59.6175 98.3901 57.867 97.4142 56.4764 96.0236C55.0857 94.6329 54.1099 92.8824 53.6581 90.9683C53.2064 89.0542 53.2967 87.0521 53.9189 85.1865L55.3117 81.0181L57.7263 73.7693L57.8331 73.4338C58.4482 71.5936 58.9514 70.089 59.6427 68.6351C60.4561 66.9322 61.4473 65.3259 62.6063 63.8415C63.5976 62.5707 64.721 61.4524 66.0935 60.0799L86.4573 39.711L92.11 34.0583L92.7556 33.4127C94.4831 31.6803 96.5361 30.3066 98.7965 29.3705C101.057 28.4344 103.48 27.9545 105.926 27.9583C105.159 22.7225 103.669 18.9964 100.792 16.1243C94.8397 10.1666 85.2526 10.1666 66.0833 10.1666H55.9167C36.7474 10.1666 27.1602 10.1666 21.2077 16.1243ZM36.8542 45.75C36.8542 44.7388 37.2558 43.7691 37.9708 43.0541C38.6858 42.3391 39.6555 41.9375 40.6667 41.9375H73.7083C74.7195 41.9375 75.6892 42.3391 76.4042 43.0541C77.1192 43.7691 77.5208 44.7388 77.5208 45.75C77.5208 46.7611 77.1192 47.7308 76.4042 48.4458C75.6892 49.1608 74.7195 49.5625 73.7083 49.5625H40.6667C39.6555 49.5625 38.6858 49.1608 37.9708 48.4458C37.2558 47.7308 36.8542 46.7611 36.8542 45.75ZM36.8542 66.0833C36.8542 65.0722 37.2558 64.1024 37.9708 63.3874C38.6858 62.6725 39.6555 62.2708 40.6667 62.2708H53.375C54.3861 62.2708 55.3559 62.6725 56.0708 63.3874C56.7858 64.1024 57.1875 65.0722 57.1875 66.0833C57.1875 67.0944 56.7858 68.0641 56.0708 68.7791C55.3559 69.4941 54.3861 69.8958 53.375 69.8958H40.6667C39.6555 69.8958 38.6858 69.4941 37.9708 68.7791C37.2558 68.0641 36.8542 67.0944 36.8542 66.0833ZM36.8542 86.4166C36.8542 85.4055 37.2558 84.4358 37.9708 83.7208C38.6858 83.0058 39.6555 82.6041 40.6667 82.6041H48.2917C49.3028 82.6041 50.2725 83.0058 50.9875 83.7208C51.7025 84.4358 52.1042 85.4055 52.1042 86.4166C52.1042 87.4278 51.7025 88.3975 50.9875 89.1125C50.2725 89.8275 49.3028 90.2291 48.2917 90.2291H40.6667C39.6555 90.2291 38.6858 89.8275 37.9708 89.1125C37.2558 88.3975 36.8542 87.4278 36.8542 86.4166Z" fill="#00B94B"/>
</svg>
